M48
;Layer_Color=6321
;FILE_FORMAT=4:4
METRIC,LZ
;TYPE=PLATED
T1F00S00C0.2000
T2F00S00C0.3000
T3F00S00C0.6500
T4F00S00C1.0000
T5F00S00C1.2700
T6F00S00C1.3000
T7F00S00C3.0000
%
T01
X0043785Y0070099
T02
X0046875Y00538452
X0054326Y0053258
X0054984Y00608
X005585Y0062021
X0057882Y0061513
X005966Y0061005
X0060934Y00624952
X0060684Y0064
X005966Y0066339
X0056184Y0067
X0055596Y0068625
X0054884Y007
X0056231Y0070149
X0055384Y00747
X00562996Y00766946
X0055342Y0078785
X0058517
X0047976Y0078404
X0045436Y0078912
X0043785Y0074086
X0046452Y0072002
X0045184Y00688
X0050262Y0070276
X00497628Y00606788
X0043084Y00618
X004128Y00616
X0042007Y0058973
X0040991Y0072054
X0055914Y00645685
X0066184Y00682452
X0065248Y0070022
X0067434Y00614952
X0068084Y00586
X00385839Y00543999
X0034006Y0053131
X003077Y0057007
X0031684Y0059
X0032484Y00630685
X0031466Y0063672
X0029684Y0065192
X0034641Y0065069
X0034514Y0062529
X003458Y0069006
X00323279Y00721232
X0031466Y0071673
X0028626Y006943
X0025497Y0063164
X0024227Y0061767
X0025497Y0060497
X0024227Y0056941
X0031525Y00480452
X0039467Y0065069
X0038451Y0066212
X0037834Y00747
X0022826Y007473
T03
X0072934Y00617452
Y00642452
Y00667452
T04
X0054494Y0057775
X0057034
X0059574
T05
X004692Y00509952
X0052
T06
X00605Y0050975
X00655
X00705
X00385
X00335
X00285
T07
X0032Y00339952
X0067
X0079Y005
Y0076
X002
Y005
M30
