G04*
G04 #@! TF.GenerationSoftware,Altium Limited,CircuitStudio,1.5.2 (1.5.2.30)*
G04*
G04 Layer_Color=16764230*
%FSLAX44Y44*%
%MOMM*%
G71*
G01*
G75*
%ADD23C,0.2540*%
D23*
X712000Y627250D02*
G03*
X712000Y627250I-5000J0D01*
G01*
X371730Y603700D02*
G03*
X371730Y603700I-5000J0D01*
G01*
X413640Y720540D02*
G03*
X413640Y720540I-5000J0D01*
G01*
X328550Y682440D02*
G03*
X328550Y682440I-5000J0D01*
G01*
X666840Y663384D02*
G03*
X666840Y663384I-5000J0D01*
G01*
X301880Y651960D02*
G03*
X301880Y651960I-5000J0D01*
G01*
X658750Y634180D02*
G03*
X658750Y634180I-5000J0D01*
G01*
X613030Y692600D02*
G03*
X613030Y692600I-5000J0D01*
G01*
X416180Y603700D02*
G03*
X416180Y603700I-5000J0D01*
G01*
X679070Y634180D02*
G03*
X679070Y634180I-5000J0D01*
G01*
X329820Y606240D02*
G03*
X329820Y606240I-5000J0D01*
G01*
X511430Y584650D02*
G03*
X511430Y584650I-5000J0D01*
G01*
X328550Y702760D02*
G03*
X328550Y702760I-5000J0D01*
G01*
X590170Y723080D02*
G03*
X590170Y723080I-5000J0D01*
G01*
X270130Y569410D02*
G03*
X270130Y569410I-5000J0D01*
G01*
X223840Y569000D02*
G03*
X223840Y569000I-5000J0D01*
G01*
X527940Y725620D02*
G03*
X527940Y725620I-5000J0D01*
G01*
X270130Y589730D02*
G03*
X270130Y589730I-5000J0D01*
G01*
X484760Y763720D02*
G03*
X484760Y763720I-5000J0D01*
G01*
X442850Y720540D02*
G03*
X442850Y720540I-5000J0D01*
G01*
X298070Y616400D02*
G03*
X298070Y616400I-5000J0D01*
G01*
X271400Y693870D02*
G03*
X271400Y693870I-5000J0D01*
G01*
X328550Y662120D02*
G03*
X328550Y662120I-5000J0D01*
G01*
X271400Y718300D02*
G03*
X271400Y718300I-5000J0D01*
G01*
X666840Y682452D02*
G03*
X666840Y682452I-5000J0D01*
G01*
X707000Y622250D02*
Y632250D01*
X702000Y627250D02*
X712000D01*
X366730Y598700D02*
Y608700D01*
X361730Y603700D02*
X371730D01*
X408640Y715540D02*
Y725540D01*
X403640Y720540D02*
X413640D01*
X323550Y677440D02*
Y687440D01*
X318550Y682440D02*
X328550D01*
X661840Y658384D02*
Y668384D01*
X656840Y663384D02*
X666840D01*
X291880Y651960D02*
X301880D01*
X296880Y646960D02*
Y656960D01*
X648750Y634180D02*
X658750D01*
X653750Y629180D02*
Y639180D01*
X603030Y692600D02*
X613030D01*
X608030Y687600D02*
Y697600D01*
X411180Y598700D02*
Y608700D01*
X406180Y603700D02*
X416180D01*
X669070Y634180D02*
X679070D01*
X674070Y629180D02*
Y639180D01*
X324820Y601240D02*
Y611240D01*
X319820Y606240D02*
X329820D01*
X501430Y584650D02*
X511430D01*
X506430Y579650D02*
Y589650D01*
X323550Y697760D02*
Y707760D01*
X318550Y702760D02*
X328550D01*
X580170Y723080D02*
X590170D01*
X585170Y718080D02*
Y728080D01*
X265130Y564410D02*
Y574410D01*
X260130Y569410D02*
X270130D01*
X213840Y569000D02*
X223840D01*
X218840Y564000D02*
Y574000D01*
X517940Y725620D02*
X527940D01*
X522940Y720620D02*
Y730620D01*
X265130Y584730D02*
Y594730D01*
X260130Y589730D02*
X270130D01*
X474760Y763720D02*
X484760D01*
X479760Y758720D02*
Y768720D01*
X432850Y720540D02*
X442850D01*
X437850Y715540D02*
Y725540D01*
X288070Y616400D02*
X298070D01*
X293070Y611400D02*
Y621400D01*
X266400Y688870D02*
Y698870D01*
X261400Y693870D02*
X271400D01*
X323550Y657120D02*
Y667120D01*
X318550Y662120D02*
X328550D01*
X266400Y713300D02*
Y723300D01*
X261400Y718300D02*
X271400D01*
X661840Y677452D02*
Y687452D01*
X656840Y682452D02*
X666840D01*
X160000Y452700D02*
G03*
X168980Y431020I30661J0D01*
G01*
X351020Y248980D02*
G03*
X372700Y240000I21680J21680D01*
G01*
X617300D02*
G03*
X638980Y248980I0J30661D01*
G01*
X821020Y431020D02*
G03*
X830000Y452700I-21680J21680D01*
G01*
Y778300D02*
G03*
X801580Y808300I-29210J790D01*
G01*
X188420D02*
G03*
X160000Y778300I790J-29210D01*
G01*
Y452700D02*
Y458300D01*
X168980Y431020D02*
X351020Y248980D01*
X372700Y240000D02*
X617300D01*
X638980Y248980D02*
X821020Y431020D01*
X830000Y452700D02*
Y458300D01*
X188420Y808300D02*
X801580D01*
X830000Y458300D02*
Y778300D01*
X160000Y458300D02*
Y778300D01*
M02*
