G04*
G04 #@! TF.GenerationSoftware,Altium Limited,CircuitStudio,1.5.2 (1.5.2.30)*
G04*
G04 Layer_Physical_Order=1*
G04 Layer_Color=11767835*
%FSLAX44Y44*%
%MOMM*%
G71*
G01*
G75*
%ADD10R,1.3000X0.7000*%
%ADD11R,1.2200X0.9100*%
%ADD12R,0.9500X1.6000*%
%ADD13R,1.3000X1.6000*%
%ADD14R,1.6000X1.3000*%
%ADD15R,0.8128X0.9144*%
%ADD16R,0.9144X0.8128*%
%ADD17R,0.7000X1.3000*%
%ADD18O,2.2000X0.6000*%
%ADD19R,0.6000X1.0000*%
%ADD20R,2.3000X0.6000*%
G04:AMPARAMS|DCode=21|XSize=1.2mm|YSize=1.2mm|CornerRadius=0.3mm|HoleSize=0mm|Usage=FLASHONLY|Rotation=180.000|XOffset=0mm|YOffset=0mm|HoleType=Round|Shape=RoundedRectangle|*
%AMROUNDEDRECTD21*
21,1,1.2000,0.6000,0,0,180.0*
21,1,0.6000,1.2000,0,0,180.0*
1,1,0.6000,-0.3000,0.3000*
1,1,0.6000,0.3000,0.3000*
1,1,0.6000,0.3000,-0.3000*
1,1,0.6000,-0.3000,-0.3000*
%
%ADD21ROUNDEDRECTD21*%
G04:AMPARAMS|DCode=22|XSize=1.6mm|YSize=1.5mm|CornerRadius=0.375mm|HoleSize=0mm|Usage=FLASHONLY|Rotation=180.000|XOffset=0mm|YOffset=0mm|HoleType=Round|Shape=RoundedRectangle|*
%AMROUNDEDRECTD22*
21,1,1.6000,0.7500,0,0,180.0*
21,1,0.8500,1.5000,0,0,180.0*
1,1,0.7500,-0.4250,0.3750*
1,1,0.7500,0.4250,0.3750*
1,1,0.7500,0.4250,-0.3750*
1,1,0.7500,-0.4250,-0.3750*
%
%ADD22ROUNDEDRECTD22*%
%ADD23C,0.2540*%
%ADD24C,2.1000*%
%ADD25C,4.0000*%
%ADD26C,6.0000*%
%ADD27R,1.5240X1.5240*%
%ADD28C,1.5240*%
%ADD29C,2.5000*%
%ADD30C,2.5400*%
%ADD31R,2.5400X2.5400*%
%ADD32C,1.3000*%
%ADD33C,0.6000*%
%ADD34C,0.4500*%
G36*
X820000Y800000D02*
Y771899D01*
X818730Y771647D01*
X817706Y774117D01*
X815157Y778278D01*
X811988Y781988D01*
X808278Y785157D01*
X804117Y787707D01*
X799609Y789574D01*
X794864Y790713D01*
X790000Y791096D01*
X785135Y790713D01*
X780391Y789574D01*
X775883Y787707D01*
X771722Y785157D01*
X768012Y781988D01*
X764843Y778278D01*
X762293Y774117D01*
X760426Y769609D01*
X759287Y764865D01*
X758904Y760000D01*
X759287Y755136D01*
X760426Y750391D01*
X762293Y745883D01*
X764843Y741722D01*
X768012Y738012D01*
X771722Y734843D01*
X775883Y732293D01*
X780391Y730426D01*
X785135Y729287D01*
X790000Y728904D01*
X794864Y729287D01*
X799609Y730426D01*
X804117Y732293D01*
X808278Y734843D01*
X811988Y738012D01*
X815157Y741722D01*
X817706Y745883D01*
X818730Y748354D01*
X820000Y748101D01*
X820000Y511899D01*
X818730Y511646D01*
X817706Y514117D01*
X815157Y518278D01*
X811988Y521988D01*
X808278Y525157D01*
X804117Y527706D01*
X799609Y529574D01*
X794864Y530713D01*
X790000Y531096D01*
X785135Y530713D01*
X780391Y529574D01*
X775883Y527706D01*
X771722Y525157D01*
X768012Y521988D01*
X764843Y518278D01*
X762293Y514117D01*
X760426Y509609D01*
X759287Y504864D01*
X758904Y500000D01*
X759287Y495135D01*
X760426Y490391D01*
X762293Y485883D01*
X764843Y481722D01*
X768012Y478012D01*
X771722Y474843D01*
X775883Y472293D01*
X780391Y470426D01*
X785135Y469287D01*
X790000Y468904D01*
X794864Y469287D01*
X799609Y470426D01*
X804117Y472293D01*
X808278Y474843D01*
X811988Y478012D01*
X815157Y481722D01*
X817706Y485883D01*
X818730Y488354D01*
X820000Y488101D01*
Y460898D01*
X819102Y460000D01*
X170000Y460000D01*
Y488101D01*
X171270Y488353D01*
X172293Y485883D01*
X174843Y481722D01*
X178012Y478012D01*
X181722Y474843D01*
X185883Y472293D01*
X190391Y470426D01*
X195135Y469287D01*
X200000Y468904D01*
X204864Y469287D01*
X209609Y470426D01*
X214117Y472293D01*
X218278Y474843D01*
X221988Y478012D01*
X225157Y481722D01*
X227707Y485883D01*
X229574Y490391D01*
X230713Y495135D01*
X231096Y500000D01*
X230713Y504864D01*
X229574Y509609D01*
X227707Y514117D01*
X225157Y518278D01*
X221988Y521988D01*
X218278Y525157D01*
X214117Y527706D01*
X209609Y529574D01*
X204864Y530713D01*
X200000Y531096D01*
X195135Y530713D01*
X190391Y529574D01*
X185883Y527706D01*
X181722Y525157D01*
X178012Y521988D01*
X174843Y518278D01*
X172293Y514117D01*
X171270Y511647D01*
X170000Y511899D01*
X170000Y748101D01*
X171270Y748353D01*
X172293Y745883D01*
X174843Y741722D01*
X178012Y738012D01*
X181722Y734843D01*
X185883Y732293D01*
X190391Y730426D01*
X195135Y729287D01*
X200000Y728904D01*
X204864Y729287D01*
X209609Y730426D01*
X214117Y732293D01*
X218278Y734843D01*
X221988Y738012D01*
X225157Y741722D01*
X226199Y743422D01*
X226699Y743532D01*
X228260Y743222D01*
X229821Y743532D01*
X231144Y744416D01*
X231324Y744685D01*
X249510D01*
Y738000D01*
X261010D01*
Y742148D01*
X262280Y742400D01*
X262778Y741198D01*
X264701Y738691D01*
X267208Y736768D01*
X270127Y735559D01*
X273260Y735146D01*
X276393Y735559D01*
X279312Y736768D01*
X281819Y738691D01*
X283742Y741198D01*
X284240Y742400D01*
X285510Y742148D01*
Y738000D01*
X288946D01*
Y725259D01*
X284301Y720614D01*
X280400D01*
Y725800D01*
X271400D01*
Y710800D01*
X280400D01*
Y715985D01*
X285260D01*
X286146Y716162D01*
X286897Y716663D01*
X292897Y722663D01*
X293398Y723414D01*
X293575Y724300D01*
Y738000D01*
X297010D01*
Y756000D01*
X285510D01*
Y752352D01*
X284240Y752099D01*
X283742Y753302D01*
X281819Y755808D01*
X279312Y757732D01*
X276393Y758941D01*
X273260Y759353D01*
X270127Y758941D01*
X267208Y757732D01*
X264701Y755808D01*
X262778Y753302D01*
X262280Y752099D01*
X261010Y752352D01*
Y756000D01*
X249510D01*
Y749314D01*
X231725D01*
X231144Y750184D01*
X229821Y751068D01*
X229759Y751164D01*
X230713Y755136D01*
X231096Y760000D01*
X230713Y764865D01*
X229574Y769609D01*
X227707Y774117D01*
X225157Y778278D01*
X221988Y781988D01*
X218278Y785157D01*
X214117Y787707D01*
X209609Y789574D01*
X204864Y790713D01*
X200000Y791096D01*
X195135Y790713D01*
X190391Y789574D01*
X185883Y787707D01*
X181722Y785157D01*
X178012Y781988D01*
X174843Y778278D01*
X172293Y774117D01*
X171270Y771647D01*
X170000Y771899D01*
Y799102D01*
X170898Y800000D01*
X820000Y800000D01*
D02*
G37*
%LPC*%
G36*
X227480Y638440D02*
X220110D01*
Y632620D01*
X227480D01*
Y638440D01*
D02*
G37*
G36*
X217570D02*
X210200D01*
Y632620D01*
X217570D01*
Y638440D01*
D02*
G37*
G36*
X263130Y657150D02*
X248130D01*
Y639150D01*
X252656D01*
Y634904D01*
X252086Y634524D01*
X251202Y633201D01*
X250892Y631640D01*
X251202Y630079D01*
X252086Y628756D01*
X253409Y627872D01*
X254970Y627562D01*
X256531Y627872D01*
X257854Y628756D01*
X258738Y630079D01*
X259048Y631640D01*
X258738Y633201D01*
X257854Y634524D01*
X257285Y634904D01*
Y639150D01*
X263130D01*
Y657150D01*
D02*
G37*
G36*
X656840Y670884D02*
X647840D01*
Y655884D01*
X650826D01*
Y648180D01*
X646250D01*
Y645994D01*
X644200D01*
X643314Y645818D01*
X643065Y645652D01*
X642563Y645317D01*
X638095Y640848D01*
X637834Y640874D01*
X636511Y641758D01*
X634950Y642068D01*
X618950D01*
X617389Y641758D01*
X616066Y640874D01*
X615182Y639551D01*
X614872Y637990D01*
X615182Y636429D01*
X616066Y635106D01*
X617389Y634222D01*
X618950Y633912D01*
X634950D01*
X636511Y634222D01*
X637834Y635106D01*
X638214Y635676D01*
X638510D01*
X639396Y635852D01*
X640147Y636353D01*
X644980Y641187D01*
X646250Y640934D01*
Y639180D01*
X661250D01*
Y648180D01*
X655454D01*
Y655884D01*
X656840D01*
Y670884D01*
D02*
G37*
G36*
X551250Y649610D02*
X526250D01*
Y641610D01*
X551250D01*
Y649610D01*
D02*
G37*
G36*
X423280Y687584D02*
X413152D01*
Y676440D01*
X423280D01*
Y676837D01*
X424453Y677324D01*
X430456Y671321D01*
Y645610D01*
Y636484D01*
X429980Y636138D01*
X429236Y635908D01*
X425517Y639627D01*
X424766Y640128D01*
X423880Y640304D01*
X423584D01*
X423204Y640874D01*
X421881Y641758D01*
X420320Y642068D01*
X404320D01*
X402759Y641758D01*
X401436Y640874D01*
X401056Y640304D01*
X397210D01*
X396324Y640128D01*
X396075Y639962D01*
X395574Y639627D01*
X389224Y633277D01*
X388722Y632526D01*
X388546Y631640D01*
Y610050D01*
X388722Y609164D01*
X389224Y608413D01*
X395574Y602063D01*
X396075Y601728D01*
X396324Y601562D01*
X397180Y601391D01*
Y596200D01*
X406180D01*
Y611200D01*
X397180D01*
Y608662D01*
X396007Y608176D01*
X393175Y611009D01*
Y630681D01*
X398169Y635676D01*
X401056D01*
X401436Y635106D01*
X402759Y634222D01*
X404320Y633912D01*
X420320D01*
X421881Y634222D01*
X423204Y635106D01*
X423465Y635132D01*
X442564Y616033D01*
X443314Y615532D01*
X444200Y615355D01*
X458506D01*
X458892Y614086D01*
X457954Y613459D01*
X457070Y612136D01*
X456760Y610575D01*
Y609890D01*
X441223D01*
X434619Y616494D01*
X434918Y618000D01*
X434608Y619561D01*
X433724Y620884D01*
X432401Y621768D01*
X430840Y622078D01*
X429279Y621768D01*
X427956Y620884D01*
X427072Y619561D01*
X426762Y618000D01*
X427072Y616439D01*
X427956Y615116D01*
X429279Y614232D01*
X430597Y613970D01*
X438628Y605939D01*
X439129Y605604D01*
X439379Y605437D01*
X440264Y605261D01*
X456760D01*
Y604576D01*
X457070Y603015D01*
X457954Y601692D01*
X459278Y600808D01*
X460838Y600497D01*
X466838D01*
X468399Y600808D01*
X469722Y601692D01*
X470606Y603015D01*
X470917Y604576D01*
Y610575D01*
X470606Y612136D01*
X469722Y613459D01*
X468785Y614086D01*
X469170Y615355D01*
X478507D01*
X478892Y614086D01*
X477954Y613459D01*
X477070Y612136D01*
X476760Y610575D01*
Y604576D01*
X477070Y603015D01*
X477954Y601692D01*
X479278Y600808D01*
X480838Y600497D01*
X486838D01*
X488399Y600808D01*
X489722Y601692D01*
X490606Y603015D01*
X490917Y604576D01*
Y605261D01*
X493853D01*
X493860Y605227D01*
X494744Y603904D01*
X496067Y603020D01*
X497628Y602709D01*
X499188Y603020D01*
X500512Y603904D01*
X501396Y605227D01*
X501706Y606788D01*
X501396Y608348D01*
X500512Y609672D01*
X499188Y610556D01*
X497628Y610866D01*
X496067Y610556D01*
X495071Y609890D01*
X490917D01*
Y610575D01*
X490606Y612136D01*
X489722Y613459D01*
X488785Y614086D01*
X489170Y615355D01*
X555960D01*
X556846Y615532D01*
X557597Y616033D01*
X557828Y616265D01*
X558500Y616132D01*
X560061Y616442D01*
X561384Y617326D01*
X562268Y618649D01*
X562578Y620210D01*
X562268Y621771D01*
X561384Y623094D01*
X560061Y623978D01*
X558500Y624288D01*
X556939Y623978D01*
X555616Y623094D01*
X554732Y621771D01*
X554422Y620210D01*
X554237Y619985D01*
X445159D01*
X435768Y629376D01*
X435998Y630120D01*
X436344Y630596D01*
X438750D01*
Y628910D01*
X463750D01*
Y636910D01*
X438750D01*
Y635224D01*
X437103D01*
X435085Y637243D01*
Y643296D01*
X438750D01*
Y641610D01*
X463750D01*
Y649610D01*
X438750D01*
Y647924D01*
X435085D01*
Y672280D01*
X434908Y673166D01*
X434407Y673917D01*
X424675Y683649D01*
X423924Y684150D01*
X423280Y684278D01*
Y687584D01*
D02*
G37*
G36*
X551250Y662310D02*
X526250D01*
Y654310D01*
X551250D01*
Y655995D01*
X553731D01*
X556826Y652901D01*
Y648949D01*
X556256Y648569D01*
X555372Y647246D01*
X555062Y645685D01*
X555372Y644124D01*
X556256Y642801D01*
X557579Y641917D01*
X559140Y641607D01*
X560701Y641917D01*
X562024Y642801D01*
X562908Y644124D01*
X563218Y645685D01*
X562908Y647246D01*
X562024Y648569D01*
X561455Y648949D01*
Y653860D01*
X561278Y654746D01*
X560777Y655497D01*
X556327Y659947D01*
X555576Y660448D01*
X554690Y660624D01*
X551250D01*
Y662310D01*
D02*
G37*
G36*
X729340Y650017D02*
X727382Y649759D01*
X725558Y649004D01*
X723991Y647801D01*
X722789Y646235D01*
X722033Y644410D01*
X721775Y642452D01*
X722033Y640495D01*
X722789Y638670D01*
X723991Y637103D01*
X725558Y635901D01*
X727025Y635293D01*
Y624612D01*
X725558Y624004D01*
X723991Y622801D01*
X722789Y621235D01*
X722181Y619767D01*
X714500D01*
Y622250D01*
X699500D01*
Y613250D01*
X714500D01*
Y615138D01*
X722181D01*
X722789Y613670D01*
X723991Y612103D01*
X725558Y610901D01*
X727382Y610145D01*
X729340Y609888D01*
X731298Y610145D01*
X733122Y610901D01*
X734689Y612103D01*
X735891Y613670D01*
X736647Y615494D01*
X736905Y617452D01*
X736647Y619410D01*
X735891Y621235D01*
X734689Y622801D01*
X733122Y624004D01*
X731654Y624612D01*
Y635293D01*
X733122Y635901D01*
X734689Y637103D01*
X735891Y638670D01*
X736647Y640495D01*
X736905Y642452D01*
X736647Y644410D01*
X735891Y646235D01*
X734689Y647801D01*
X733122Y649004D01*
X731298Y649759D01*
X729340Y650017D01*
D02*
G37*
G36*
X420320Y629368D02*
X404320D01*
X402759Y629058D01*
X401436Y628174D01*
X400552Y626851D01*
X400242Y625290D01*
X400552Y623729D01*
X401436Y622406D01*
X402759Y621522D01*
X404320Y621212D01*
X410006D01*
Y618943D01*
X409916Y618884D01*
X409032Y617561D01*
X408722Y616000D01*
X409032Y614439D01*
X409916Y613116D01*
X411240Y612232D01*
X412800Y611922D01*
X414361Y612232D01*
X415684Y613116D01*
X416568Y614439D01*
X416879Y616000D01*
X416568Y617561D01*
X415684Y618884D01*
X414635Y619585D01*
Y621212D01*
X420320D01*
X421881Y621522D01*
X423204Y622406D01*
X424088Y623729D01*
X424398Y625290D01*
X424088Y626851D01*
X423204Y628174D01*
X421881Y629058D01*
X420320Y629368D01*
D02*
G37*
G36*
X681570Y648180D02*
X666570D01*
Y639180D01*
X670191D01*
X670717Y637910D01*
X669301Y636494D01*
X656290D01*
X655404Y636318D01*
X655155Y636152D01*
X654653Y635817D01*
X652113Y633277D01*
X651612Y632526D01*
X651436Y631640D01*
Y629180D01*
X646250D01*
Y620180D01*
X661250D01*
Y629180D01*
X656065D01*
Y630681D01*
X657249Y631866D01*
X670260D01*
X671146Y632042D01*
X671897Y632543D01*
X675707Y636353D01*
X676208Y637104D01*
X676385Y637990D01*
Y639180D01*
X681570D01*
Y639180D01*
X682804Y639094D01*
X683186Y638822D01*
Y614571D01*
X678381Y609767D01*
X675284D01*
X675158Y611037D01*
X675901Y611184D01*
X677224Y612068D01*
X678108Y613392D01*
X678418Y614952D01*
X678108Y616513D01*
X677224Y617836D01*
X676385Y618397D01*
Y620180D01*
X681570D01*
Y629180D01*
X666570D01*
Y620180D01*
X671756D01*
Y618036D01*
X671456Y617836D01*
X670572Y616513D01*
X670262Y614952D01*
X670572Y613392D01*
X671456Y612068D01*
X672779Y611184D01*
X673521Y611037D01*
X673396Y609767D01*
X600911D01*
X600678Y610050D01*
X600368Y611611D01*
X599484Y612934D01*
X598161Y613818D01*
X596600Y614128D01*
X595039Y613818D01*
X594358Y613363D01*
X594358Y613363D01*
X594099Y613189D01*
X594095Y613193D01*
X594075Y613218D01*
X594041Y613259D01*
X593289Y614176D01*
X602089Y622976D01*
X605850D01*
X606456Y622068D01*
X607779Y621184D01*
X609340Y620874D01*
X610901Y621184D01*
X612224Y622068D01*
X612830Y622976D01*
X615686D01*
X616066Y622406D01*
X617389Y621522D01*
X618950Y621212D01*
X634950D01*
X636511Y621522D01*
X637834Y622406D01*
X638718Y623729D01*
X639028Y625290D01*
X638718Y626851D01*
X637834Y628174D01*
X636511Y629058D01*
X634950Y629368D01*
X618950D01*
X617389Y629058D01*
X616066Y628174D01*
X615686Y627604D01*
X612379D01*
X612224Y627836D01*
X610901Y628720D01*
X609340Y629031D01*
X607779Y628720D01*
X606456Y627836D01*
X606301Y627604D01*
X601130D01*
X600244Y627428D01*
X599493Y626927D01*
X582881Y610314D01*
X581099D01*
X580714Y611585D01*
X581704Y612246D01*
X582588Y613569D01*
X582898Y615130D01*
X582588Y616691D01*
X581704Y618014D01*
X581264Y618307D01*
Y621212D01*
X586950D01*
X588511Y621522D01*
X589834Y622406D01*
X590718Y623729D01*
X591028Y625290D01*
X590718Y626851D01*
X589834Y628174D01*
X588511Y629058D01*
X586950Y629368D01*
X570950D01*
X569389Y629058D01*
X568066Y628174D01*
X567182Y626851D01*
X566872Y625290D01*
X567182Y623729D01*
X568066Y622406D01*
X569389Y621522D01*
X570950Y621212D01*
X576636D01*
Y618481D01*
X575936Y618014D01*
X575052Y616691D01*
X574742Y615130D01*
X575052Y613569D01*
X575936Y612246D01*
X576926Y611585D01*
X576541Y610314D01*
X553104D01*
X552724Y610884D01*
X551401Y611768D01*
X549840Y612078D01*
X548279Y611768D01*
X546956Y610884D01*
X546072Y609561D01*
X545762Y608000D01*
X546072Y606439D01*
X546956Y605116D01*
X548279Y604232D01*
X549840Y603922D01*
X551401Y604232D01*
X552724Y605116D01*
X553104Y605686D01*
X583840D01*
X584726Y605862D01*
X585477Y606363D01*
X592474Y613361D01*
X593391Y612608D01*
X593432Y612575D01*
X593457Y612555D01*
X593461Y612551D01*
X593288Y612292D01*
Y612292D01*
X592832Y611611D01*
X592522Y610050D01*
X592832Y608489D01*
X593716Y607166D01*
X595039Y606282D01*
X596600Y605972D01*
X597272Y606105D01*
X597561Y605816D01*
X598312Y605314D01*
X599198Y605138D01*
X679340D01*
X680226Y605314D01*
X680976Y605816D01*
X687137Y611976D01*
X687638Y612727D01*
X687814Y613612D01*
Y640530D01*
X687638Y641416D01*
X687137Y642167D01*
X683987Y645317D01*
X683236Y645818D01*
X682350Y645994D01*
X681570D01*
Y648180D01*
D02*
G37*
G36*
X282130Y657150D02*
X267130D01*
Y639150D01*
X272134D01*
Y632310D01*
X268876D01*
Y622182D01*
X280020D01*
Y623586D01*
X285570D01*
Y621400D01*
X300570D01*
Y630400D01*
X285570D01*
Y628214D01*
X280020D01*
Y632310D01*
X276763D01*
Y639150D01*
X282130D01*
Y657150D01*
D02*
G37*
G36*
X495000Y666712D02*
X490883Y666306D01*
X486925Y665105D01*
X483277Y663155D01*
X480079Y660531D01*
X477455Y657333D01*
X475505Y653685D01*
X474304Y649727D01*
X473899Y645610D01*
X474304Y641493D01*
X475505Y637535D01*
X477455Y633887D01*
X480079Y630689D01*
X483277Y628065D01*
X486925Y626115D01*
X490883Y624914D01*
X495000Y624508D01*
X499117Y624914D01*
X503075Y626115D01*
X506724Y628065D01*
X509921Y630689D01*
X512545Y633887D01*
X514495Y637535D01*
X515696Y641493D01*
X516102Y645610D01*
X515696Y649727D01*
X514495Y653685D01*
X512545Y657333D01*
X509921Y660531D01*
X506724Y663155D01*
X503075Y665105D01*
X499117Y666306D01*
X495000Y666712D01*
D02*
G37*
G36*
X227480Y630080D02*
X220110D01*
Y624260D01*
X227480D01*
Y630080D01*
D02*
G37*
G36*
X217570D02*
X210200D01*
Y624260D01*
X217570D01*
Y630080D01*
D02*
G37*
G36*
X425716Y662120D02*
X413590D01*
Y657741D01*
X420320D01*
X422482Y658171D01*
X424314Y659396D01*
X425539Y661228D01*
X425716Y662120D01*
D02*
G37*
G36*
X411050D02*
X398924D01*
X399101Y661228D01*
X400326Y659396D01*
X402159Y658171D01*
X404320Y657741D01*
X411050D01*
Y662120D01*
D02*
G37*
G36*
X337550Y710260D02*
X328550D01*
Y695260D01*
X330736D01*
Y689940D01*
X328550D01*
Y674940D01*
X330736D01*
Y669620D01*
X328550D01*
Y657741D01*
X327377Y657255D01*
X320875Y663757D01*
X320124Y664258D01*
X319238Y664435D01*
X318550D01*
Y669620D01*
X309550D01*
Y663774D01*
X304380D01*
Y665960D01*
X289380D01*
Y656960D01*
X295165D01*
X295290Y655690D01*
X295279Y655688D01*
X293956Y654804D01*
X293072Y653481D01*
X292762Y651920D01*
X293072Y650359D01*
X293956Y649036D01*
X294566Y648629D01*
Y646960D01*
X289380D01*
Y637960D01*
X304380D01*
Y646960D01*
X299195D01*
Y648682D01*
X299724Y649036D01*
X300608Y650359D01*
X300918Y651920D01*
X300608Y653481D01*
X299724Y654804D01*
X298401Y655688D01*
X298390Y655690D01*
X298515Y656960D01*
X304380D01*
Y659146D01*
X309550D01*
Y654620D01*
X318550D01*
Y657876D01*
X319723Y658362D01*
X326572Y651513D01*
X326086Y650340D01*
X319680D01*
Y639196D01*
X322430D01*
Y633886D01*
X321956Y633569D01*
X321072Y632246D01*
X320762Y630685D01*
X320857Y630207D01*
X319769Y629164D01*
X317558D01*
Y633858D01*
X318428Y635159D01*
X318738Y636720D01*
X318428Y638281D01*
X317544Y639604D01*
X316221Y640488D01*
X314660Y640798D01*
X313099Y640488D01*
X311776Y639604D01*
X310892Y638281D01*
X310582Y636720D01*
X310892Y635159D01*
X311776Y633836D01*
X312930Y633065D01*
Y629164D01*
X310180D01*
Y618020D01*
X320308D01*
Y627982D01*
X321578Y628367D01*
X321956Y627802D01*
X323279Y626917D01*
X324840Y626607D01*
X326401Y626917D01*
X327724Y627802D01*
X328062Y628308D01*
X329332Y627923D01*
Y618020D01*
X339460D01*
Y621278D01*
X343442D01*
X344125Y621413D01*
X345140Y621212D01*
X346701Y621522D01*
X348024Y622406D01*
X348404Y622976D01*
X353056D01*
X353436Y622406D01*
X354759Y621522D01*
X356320Y621212D01*
X372320D01*
X373881Y621522D01*
X375204Y622406D01*
X376088Y623729D01*
X376398Y625290D01*
X376088Y626851D01*
X375204Y628174D01*
X373881Y629058D01*
X372320Y629368D01*
X356320D01*
X354759Y629058D01*
X353436Y628174D01*
X353056Y627604D01*
X348404D01*
X348024Y628174D01*
X346701Y629058D01*
X345140Y629368D01*
X343579Y629058D01*
X342256Y628174D01*
X341372Y626851D01*
X341184Y625906D01*
X339460D01*
Y629164D01*
X329911D01*
X328827Y630225D01*
X328918Y630685D01*
X328608Y632246D01*
X327724Y633569D01*
X327058Y634014D01*
Y639196D01*
X329808D01*
Y646618D01*
X330981Y647104D01*
X341732Y636353D01*
X342483Y635852D01*
X343368Y635676D01*
X353056D01*
X353436Y635106D01*
X354759Y634222D01*
X356320Y633912D01*
X372320D01*
X373881Y634222D01*
X375204Y635106D01*
X376088Y636429D01*
X376398Y637990D01*
X376088Y639551D01*
X375204Y640874D01*
X373881Y641758D01*
X372320Y642068D01*
X356320D01*
X354759Y641758D01*
X353436Y640874D01*
X353056Y640304D01*
X344327D01*
X331185Y653447D01*
X331671Y654620D01*
X337550D01*
Y661076D01*
X353056D01*
X353436Y660506D01*
X354759Y659622D01*
X356320Y659312D01*
X372320D01*
X373881Y659622D01*
X375204Y660506D01*
X375584Y661076D01*
X380639D01*
X380742Y660559D01*
X381626Y659236D01*
X382949Y658352D01*
X384510Y658042D01*
X386071Y658352D01*
X387394Y659236D01*
X388278Y660559D01*
X388588Y662120D01*
X388278Y663681D01*
X387394Y665004D01*
X386071Y665888D01*
X384510Y666198D01*
X382949Y665888D01*
X382675Y665704D01*
X375584D01*
X375204Y666274D01*
X373881Y667158D01*
X372320Y667468D01*
X356320D01*
X354759Y667158D01*
X353436Y666274D01*
X353056Y665704D01*
X337550D01*
Y669620D01*
X335364D01*
Y674940D01*
X337550D01*
Y689940D01*
X335364D01*
Y695260D01*
X337550D01*
Y710260D01*
D02*
G37*
G36*
X729340Y675017D02*
X727382Y674759D01*
X725558Y674004D01*
X723991Y672801D01*
X722789Y671235D01*
X722181Y669767D01*
X721452D01*
X720567Y669591D01*
X720317Y669424D01*
X719816Y669089D01*
X705363Y654636D01*
X704862Y653886D01*
X704685Y653000D01*
Y641250D01*
X699500D01*
Y632250D01*
X714500D01*
Y641250D01*
X709314D01*
Y652041D01*
X721440Y664167D01*
X722685Y663919D01*
X722789Y663670D01*
X723991Y662103D01*
X725558Y660901D01*
X727382Y660145D01*
X729340Y659888D01*
X731298Y660145D01*
X733122Y660901D01*
X734689Y662103D01*
X735891Y663670D01*
X736647Y665495D01*
X736905Y667452D01*
X736647Y669410D01*
X735891Y671235D01*
X734689Y672801D01*
X733122Y674004D01*
X731298Y674759D01*
X729340Y675017D01*
D02*
G37*
G36*
X420320Y669038D02*
X413590D01*
Y664660D01*
X425716D01*
X425539Y665552D01*
X424314Y667384D01*
X422482Y668609D01*
X420320Y669038D01*
D02*
G37*
G36*
X411050D02*
X404320D01*
X402159Y668609D01*
X400326Y667384D01*
X399101Y665552D01*
X398924Y664660D01*
X411050D01*
Y669038D01*
D02*
G37*
G36*
X261400Y701370D02*
X252400D01*
Y686370D01*
X254586D01*
Y681280D01*
X248130D01*
Y674594D01*
X247350D01*
X246464Y674418D01*
X245714Y673917D01*
X240634Y668837D01*
X240132Y668086D01*
X239956Y667200D01*
Y620934D01*
X239386Y620554D01*
X238502Y619231D01*
X238192Y617670D01*
X238502Y616109D01*
X239386Y614786D01*
X240709Y613902D01*
X242270Y613592D01*
X243831Y613902D01*
X245154Y614786D01*
X245484Y615280D01*
X247700D01*
Y612530D01*
X258844D01*
Y622658D01*
X247700D01*
Y619908D01*
X245585D01*
X245154Y620554D01*
X244585Y620934D01*
Y666241D01*
X246957Y668614D01*
X248130Y668128D01*
Y663280D01*
X263130D01*
Y681280D01*
X259214D01*
Y686370D01*
X261400D01*
Y701370D01*
D02*
G37*
G36*
X586950Y654768D02*
X570950D01*
X569389Y654458D01*
X568066Y653574D01*
X567335Y652479D01*
X567106Y652327D01*
X565203Y650424D01*
X564702Y649673D01*
X564525Y648787D01*
Y643248D01*
X556502Y635224D01*
X551250D01*
Y636910D01*
X526250D01*
Y628910D01*
X551250D01*
Y630596D01*
X557460D01*
X558346Y630772D01*
X559097Y631273D01*
X565641Y637818D01*
X566994Y637375D01*
X567182Y636429D01*
X568066Y635106D01*
X569389Y634222D01*
X570950Y633912D01*
X586950D01*
X588511Y634222D01*
X589834Y635106D01*
X590214Y635676D01*
X604830D01*
X605716Y635852D01*
X606054Y636078D01*
X606840Y635922D01*
X608401Y636232D01*
X609724Y637116D01*
X610608Y638439D01*
X610918Y640000D01*
X610608Y641561D01*
X609724Y642884D01*
X608401Y643768D01*
X606840Y644078D01*
X605279Y643768D01*
X603956Y642884D01*
X603072Y641561D01*
X602822Y640304D01*
X590214D01*
X589834Y640874D01*
X588511Y641758D01*
X586950Y642068D01*
X570950D01*
X570383Y641955D01*
X570204Y642004D01*
X569154Y643006D01*
Y645674D01*
X570424Y646716D01*
X570950Y646612D01*
X586950D01*
X588511Y646922D01*
X589834Y647806D01*
X590718Y649129D01*
X591028Y650690D01*
X590718Y652251D01*
X589834Y653574D01*
X588511Y654458D01*
X586950Y654768D01*
D02*
G37*
G36*
X640346Y649420D02*
X628220D01*
Y645042D01*
X634950D01*
X637112Y645471D01*
X638944Y646696D01*
X640169Y648528D01*
X640346Y649420D01*
D02*
G37*
G36*
X625680D02*
X613554D01*
X613731Y648528D01*
X614956Y646696D01*
X616788Y645471D01*
X618950Y645042D01*
X625680D01*
Y649420D01*
D02*
G37*
G36*
Y656339D02*
X618950D01*
X616788Y655909D01*
X614956Y654684D01*
X613731Y652852D01*
X613554Y651960D01*
X625680D01*
Y656339D01*
D02*
G37*
G36*
X420320Y654768D02*
X404320D01*
X402759Y654458D01*
X401436Y653574D01*
X401056Y653005D01*
X397934D01*
X397554Y653574D01*
X396231Y654458D01*
X394670Y654768D01*
X393109Y654458D01*
X391786Y653574D01*
X390902Y652251D01*
X390592Y650690D01*
X390725Y650018D01*
X382873Y642167D01*
X382372Y641416D01*
X382196Y640530D01*
Y610700D01*
X382000Y610569D01*
X380730Y611200D01*
Y611200D01*
X371730D01*
Y596200D01*
X380730D01*
Y601838D01*
X381067Y602063D01*
X386147Y607143D01*
X386648Y607894D01*
X386825Y608780D01*
Y639571D01*
X393998Y646745D01*
X394670Y646612D01*
X396231Y646922D01*
X397554Y647806D01*
X397934Y648375D01*
X401056D01*
X401436Y647806D01*
X402759Y646922D01*
X404320Y646612D01*
X420320D01*
X421881Y646922D01*
X423204Y647806D01*
X424088Y649129D01*
X424398Y650690D01*
X424088Y652251D01*
X423204Y653574D01*
X421881Y654458D01*
X420320Y654768D01*
D02*
G37*
G36*
X372320D02*
X356320D01*
X354759Y654458D01*
X353436Y653574D01*
X353056Y653005D01*
X349674D01*
X349294Y653574D01*
X347971Y654458D01*
X346410Y654768D01*
X344849Y654458D01*
X343526Y653574D01*
X342642Y652251D01*
X342332Y650690D01*
X342642Y649129D01*
X343526Y647806D01*
X344849Y646922D01*
X346410Y646612D01*
X347971Y646922D01*
X349294Y647806D01*
X349674Y648375D01*
X353056D01*
X353436Y647806D01*
X354759Y646922D01*
X356320Y646612D01*
X372320D01*
X373881Y646922D01*
X375204Y647806D01*
X376088Y649129D01*
X376398Y650690D01*
X376088Y652251D01*
X375204Y653574D01*
X373881Y654458D01*
X372320Y654768D01*
D02*
G37*
G36*
X634950Y656339D02*
X628220D01*
Y651960D01*
X640346D01*
X640169Y652852D01*
X638944Y654684D01*
X637112Y655909D01*
X634950Y656339D01*
D02*
G37*
G36*
X450660Y602920D02*
X432660D01*
Y587920D01*
X450660D01*
Y591836D01*
X498930D01*
Y589650D01*
X513930D01*
Y589997D01*
X515103Y590484D01*
X528923Y576663D01*
X529674Y576162D01*
X530560Y575985D01*
X536320D01*
Y569130D01*
X553560D01*
Y586370D01*
X536320D01*
Y580615D01*
X531519D01*
X516347Y595787D01*
X515596Y596288D01*
X514710Y596465D01*
X513930D01*
Y598650D01*
X498930D01*
Y596465D01*
X450660D01*
Y602920D01*
D02*
G37*
G36*
X570340Y586444D02*
X568090Y586148D01*
X565993Y585279D01*
X564192Y583898D01*
X562810Y582097D01*
X561942Y580000D01*
X561646Y577750D01*
X561942Y575500D01*
X562810Y573403D01*
X564192Y571602D01*
X565993Y570220D01*
X568090Y569352D01*
X570340Y569055D01*
X572590Y569352D01*
X574687Y570220D01*
X576488Y571602D01*
X577869Y573403D01*
X578738Y575500D01*
X579034Y577750D01*
X578738Y580000D01*
X577869Y582097D01*
X576488Y583898D01*
X574687Y585279D01*
X572590Y586148D01*
X570340Y586444D01*
D02*
G37*
G36*
X425180Y611200D02*
X416180D01*
Y596200D01*
X417756D01*
Y592994D01*
X417186Y592614D01*
X416302Y591291D01*
X415992Y589730D01*
X416302Y588169D01*
X417186Y586846D01*
X418509Y585962D01*
X420070Y585652D01*
X420742Y585785D01*
X431744Y574783D01*
X432495Y574282D01*
X432660Y574249D01*
Y568920D01*
X450660D01*
Y583920D01*
X432660D01*
Y582072D01*
X431487Y581586D01*
X424015Y589058D01*
X424148Y589730D01*
X423838Y591291D01*
X422954Y592614D01*
X422384Y592994D01*
Y596200D01*
X425180D01*
Y611200D01*
D02*
G37*
G36*
X478088Y583168D02*
X469588D01*
X467735Y582800D01*
X466164Y581750D01*
X465114Y580179D01*
X464745Y578325D01*
Y570826D01*
X465114Y568972D01*
X466164Y567401D01*
X467735Y566351D01*
X469588Y565982D01*
X478088D01*
X479942Y566351D01*
X481513Y567401D01*
X482563Y568972D01*
X482931Y570826D01*
Y572531D01*
X498930D01*
Y570650D01*
X513930D01*
Y579650D01*
X498930D01*
Y577160D01*
X482931D01*
Y578325D01*
X482563Y580179D01*
X481513Y581750D01*
X479942Y582800D01*
X478088Y583168D01*
D02*
G37*
G36*
X654560Y584650D02*
X646790D01*
Y575380D01*
X654560D01*
Y584650D01*
D02*
G37*
G36*
X644250D02*
X636480D01*
Y575380D01*
X644250D01*
Y584650D01*
D02*
G37*
G36*
X225940Y604200D02*
X211740D01*
Y593100D01*
X216525D01*
Y583000D01*
X211340D01*
Y574000D01*
X226340D01*
Y583000D01*
X221154D01*
Y593100D01*
X225940D01*
Y604200D01*
D02*
G37*
G36*
X655000Y523366D02*
X651476Y522902D01*
X648192Y521542D01*
X645371Y519378D01*
X643208Y516558D01*
X641847Y513274D01*
X641383Y509750D01*
X641847Y506226D01*
X643208Y502942D01*
X645371Y500122D01*
X648192Y497958D01*
X651476Y496597D01*
X655000Y496133D01*
X658524Y496597D01*
X661808Y497958D01*
X664628Y500122D01*
X666792Y502942D01*
X668152Y506226D01*
X668616Y509750D01*
X668152Y513274D01*
X666792Y516558D01*
X664628Y519378D01*
X661808Y521542D01*
X658524Y522902D01*
X655000Y523366D01*
D02*
G37*
G36*
X335000D02*
X331476Y522902D01*
X328192Y521542D01*
X325372Y519378D01*
X323208Y516558D01*
X321847Y513274D01*
X321383Y509750D01*
X321847Y506226D01*
X323208Y502942D01*
X325372Y500122D01*
X328192Y497958D01*
X331476Y496597D01*
X335000Y496133D01*
X338524Y496597D01*
X341808Y497958D01*
X344628Y500122D01*
X346792Y502942D01*
X348152Y506226D01*
X348616Y509750D01*
X348152Y513274D01*
X346792Y516558D01*
X344628Y519378D01*
X341808Y521542D01*
X338524Y522902D01*
X335000Y523366D01*
D02*
G37*
G36*
X285000D02*
X281476Y522902D01*
X278192Y521542D01*
X275372Y519378D01*
X273208Y516558D01*
X271847Y513274D01*
X271383Y509750D01*
X271847Y506226D01*
X273208Y502942D01*
X275372Y500122D01*
X278192Y497958D01*
X281476Y496597D01*
X285000Y496133D01*
X288524Y496597D01*
X291808Y497958D01*
X294628Y500122D01*
X296792Y502942D01*
X298152Y506226D01*
X298616Y509750D01*
X298152Y513274D01*
X296792Y516558D01*
X294628Y519378D01*
X291808Y521542D01*
X288524Y522902D01*
X285000Y523366D01*
D02*
G37*
G36*
X469200Y523770D02*
X465624Y523300D01*
X462291Y521919D01*
X459429Y519723D01*
X457233Y516861D01*
X455853Y513529D01*
X455382Y509952D01*
X455853Y506376D01*
X457233Y503043D01*
X459429Y500181D01*
X462291Y497985D01*
X465624Y496605D01*
X469200Y496134D01*
X472776Y496605D01*
X476109Y497985D01*
X478971Y500181D01*
X481167Y503043D01*
X482547Y506376D01*
X483018Y509952D01*
X482547Y513529D01*
X481167Y516861D01*
X478971Y519723D01*
X476109Y521919D01*
X472776Y523300D01*
X469200Y523770D01*
D02*
G37*
G36*
X302070Y577570D02*
X284070D01*
Y562570D01*
X302070D01*
Y567756D01*
X304436D01*
X304816Y567186D01*
X306139Y566302D01*
X307700Y565992D01*
X309261Y566302D01*
X310584Y567186D01*
X311468Y568509D01*
X311779Y570070D01*
X311468Y571631D01*
X310584Y572954D01*
X309261Y573838D01*
X307700Y574148D01*
X306139Y573838D01*
X304816Y572954D01*
X304436Y572385D01*
X302070D01*
Y577570D01*
D02*
G37*
G36*
X595740Y586444D02*
X593490Y586148D01*
X591393Y585279D01*
X589592Y583898D01*
X588210Y582097D01*
X587342Y580000D01*
X587046Y577750D01*
X587342Y575500D01*
X588210Y573403D01*
X589592Y571602D01*
X591393Y570220D01*
X591746Y570074D01*
Y566179D01*
X577151Y551584D01*
X383656D01*
X382771Y551408D01*
X382020Y550906D01*
X379428Y548315D01*
X252799D01*
X244585Y556529D01*
Y566146D01*
X245154Y566526D01*
X245534Y567095D01*
X251130D01*
Y561910D01*
X260130D01*
Y576910D01*
X251130D01*
Y571725D01*
X245534D01*
X245154Y572294D01*
X243831Y573178D01*
X242270Y573488D01*
X240709Y573178D01*
X239386Y572294D01*
X238502Y570971D01*
X238192Y569410D01*
X238502Y567849D01*
X239386Y566526D01*
X239956Y566146D01*
Y555570D01*
X240132Y554684D01*
X240634Y553933D01*
X250203Y544363D01*
X250954Y543862D01*
X251840Y543685D01*
X380387D01*
X381273Y543862D01*
X381996Y542817D01*
X382071Y542439D01*
X382340Y542037D01*
X381661Y540767D01*
X232549D01*
X221154Y552161D01*
Y555000D01*
X226340D01*
Y564000D01*
X211340D01*
Y555000D01*
X216525D01*
Y551202D01*
X216702Y550317D01*
X217203Y549566D01*
X229953Y536816D01*
X230704Y536314D01*
X231590Y536138D01*
X337814D01*
X338185Y534868D01*
X337176Y534194D01*
X336292Y532871D01*
X335982Y531310D01*
X336292Y529749D01*
X337176Y528426D01*
X338499Y527542D01*
X340060Y527232D01*
X341621Y527542D01*
X342944Y528426D01*
X343324Y528996D01*
X382685D01*
Y523062D01*
X381476Y522902D01*
X378192Y521542D01*
X375372Y519378D01*
X373208Y516558D01*
X371847Y513274D01*
X371383Y509750D01*
X371847Y506226D01*
X373208Y502942D01*
X375372Y500122D01*
X378192Y497958D01*
X381476Y496597D01*
X385000Y496133D01*
X388524Y496597D01*
X391808Y497958D01*
X394628Y500122D01*
X396792Y502942D01*
X398152Y506226D01*
X398616Y509750D01*
X398152Y513274D01*
X396792Y516558D01*
X394628Y519378D01*
X391808Y521542D01*
X388524Y522902D01*
X387314Y523062D01*
Y528996D01*
X541425D01*
X541699Y528812D01*
X543260Y528502D01*
X544821Y528812D01*
X546144Y529696D01*
X547028Y531019D01*
X547338Y532580D01*
X547028Y534141D01*
X546144Y535464D01*
X544821Y536348D01*
X543260Y536658D01*
X541699Y536348D01*
X540376Y535464D01*
X539492Y534141D01*
X539389Y533624D01*
X470996D01*
X470625Y534894D01*
X471634Y535569D01*
X472518Y536892D01*
X472828Y538452D01*
X472518Y540013D01*
X471634Y541336D01*
X471096Y541696D01*
X471481Y542966D01*
X549851D01*
X584703Y508113D01*
X585454Y507612D01*
X586340Y507435D01*
X591688D01*
X591847Y506226D01*
X593208Y502942D01*
X595372Y500122D01*
X598192Y497958D01*
X601476Y496597D01*
X605000Y496133D01*
X608524Y496597D01*
X611808Y497958D01*
X614628Y500122D01*
X616792Y502942D01*
X618152Y506226D01*
X618616Y509750D01*
X618152Y513274D01*
X616792Y516558D01*
X614628Y519378D01*
X611808Y521542D01*
X608524Y522902D01*
X605000Y523366D01*
X601476Y522902D01*
X598192Y521542D01*
X595372Y519378D01*
X593208Y516558D01*
X591847Y513274D01*
X591688Y512064D01*
X587299D01*
X553678Y545685D01*
X554204Y546955D01*
X578109D01*
X578995Y547131D01*
X579746Y547633D01*
X595697Y563583D01*
X596032Y564085D01*
X596198Y564334D01*
X596375Y565220D01*
Y569139D01*
X597990Y569352D01*
X600087Y570220D01*
X601888Y571602D01*
X603270Y573403D01*
X604138Y575500D01*
X604434Y577750D01*
X604138Y580000D01*
X603270Y582097D01*
X601888Y583898D01*
X600087Y585279D01*
X597990Y586148D01*
X595740Y586444D01*
D02*
G37*
G36*
X533700Y523652D02*
X506300D01*
Y496252D01*
X533700D01*
Y523652D01*
D02*
G37*
G36*
X340360Y604970D02*
X335590D01*
Y597200D01*
X340360D01*
Y604970D01*
D02*
G37*
G36*
X333050D02*
X328280D01*
Y597200D01*
X333050D01*
Y604970D01*
D02*
G37*
G36*
X363270Y602430D02*
X358500D01*
Y594660D01*
X363270D01*
Y602430D01*
D02*
G37*
G36*
X355960Y612740D02*
X351190D01*
Y604970D01*
X355960D01*
Y612740D01*
D02*
G37*
G36*
X340360Y615280D02*
X335590D01*
Y607510D01*
X340360D01*
Y615280D01*
D02*
G37*
G36*
X333050D02*
X328280D01*
Y607510D01*
X333050D01*
Y615280D01*
D02*
G37*
G36*
X363270Y612740D02*
X358500D01*
Y604970D01*
X363270D01*
Y612740D01*
D02*
G37*
G36*
X254970Y609048D02*
X253409Y608738D01*
X252086Y607854D01*
X251202Y606531D01*
X250892Y604970D01*
X251202Y603409D01*
X252086Y602086D01*
X253316Y601265D01*
Y597230D01*
X251130D01*
Y582230D01*
X260130D01*
Y597230D01*
X257945D01*
Y602222D01*
X258738Y603409D01*
X259048Y604970D01*
X258738Y606531D01*
X257854Y607854D01*
X256531Y608738D01*
X254970Y609048D01*
D02*
G37*
G36*
X672020Y594920D02*
X657020D01*
Y576920D01*
X672020D01*
Y583605D01*
X677629D01*
X677956Y583116D01*
X679279Y582232D01*
X680840Y581922D01*
X682401Y582232D01*
X683724Y583116D01*
X684608Y584439D01*
X684918Y586000D01*
X684608Y587561D01*
X683724Y588884D01*
X682401Y589768D01*
X680840Y590078D01*
X679279Y589768D01*
X677956Y588884D01*
X677522Y588234D01*
X672020D01*
Y594920D01*
D02*
G37*
G36*
X280020Y613158D02*
X268876D01*
Y603030D01*
X272316D01*
Y597230D01*
X270130D01*
Y582230D01*
X272316D01*
Y576910D01*
X270130D01*
Y561910D01*
X279130D01*
Y576910D01*
X276945D01*
Y582230D01*
X279130D01*
Y587416D01*
X284070D01*
Y581570D01*
X302070D01*
Y596570D01*
X295385D01*
Y602400D01*
X300570D01*
Y611400D01*
X285570D01*
Y610409D01*
X280020D01*
Y613158D01*
D02*
G37*
G36*
X319820Y613740D02*
X310820D01*
Y598740D01*
X313006D01*
Y591520D01*
X313035Y591373D01*
X312762Y590000D01*
X313072Y588439D01*
X313956Y587116D01*
X315279Y586232D01*
X316840Y585922D01*
X318401Y586232D01*
X319724Y587116D01*
X320608Y588439D01*
X320918Y590000D01*
X320608Y591561D01*
X319724Y592884D01*
X318401Y593768D01*
X317635Y593920D01*
Y598740D01*
X319820D01*
Y613740D01*
D02*
G37*
G36*
X355960Y602430D02*
X351190D01*
Y594660D01*
X355960D01*
Y602430D01*
D02*
G37*
G36*
X654560Y596460D02*
X646790D01*
Y587190D01*
X654560D01*
Y596460D01*
D02*
G37*
G36*
X644250D02*
X636480D01*
Y587190D01*
X644250D01*
Y596460D01*
D02*
G37*
G36*
X700840Y670918D02*
X682840D01*
Y665699D01*
X675840D01*
Y670884D01*
X666840D01*
Y655884D01*
X675840D01*
Y661070D01*
X682840D01*
Y655918D01*
X689491D01*
Y526284D01*
X689668Y525398D01*
X690169Y524647D01*
X695376Y519441D01*
X695371Y519378D01*
X693208Y516558D01*
X691847Y513274D01*
X691383Y509750D01*
X691847Y506226D01*
X693208Y502942D01*
X695371Y500122D01*
X695376Y500059D01*
X677631Y482314D01*
X318817D01*
X318134Y483336D01*
X316811Y484220D01*
X315250Y484531D01*
X313689Y484220D01*
X312366Y483336D01*
X311482Y482013D01*
X311171Y480452D01*
X311482Y478892D01*
X312366Y477569D01*
X313689Y476684D01*
X315250Y476374D01*
X316811Y476684D01*
X318134Y477569D01*
X318212Y477685D01*
X678590D01*
X679476Y477862D01*
X680227Y478363D01*
X699344Y497481D01*
X701476Y496597D01*
X705000Y496133D01*
X708524Y496597D01*
X711808Y497958D01*
X714628Y500122D01*
X716792Y502942D01*
X718152Y506226D01*
X718616Y509750D01*
X718152Y513274D01*
X716792Y516558D01*
X714628Y519378D01*
X711808Y521542D01*
X708524Y522902D01*
X705000Y523366D01*
X701476Y522902D01*
X699344Y522019D01*
X694120Y527243D01*
Y655918D01*
X700840D01*
Y670918D01*
D02*
G37*
G36*
X487260Y758720D02*
X472260D01*
Y749720D01*
X477446D01*
Y747210D01*
X477622Y746324D01*
X478124Y745573D01*
X481256Y742441D01*
Y735145D01*
Y727849D01*
X472383Y718976D01*
X471881Y718225D01*
X471705Y717340D01*
Y714808D01*
X470020D01*
Y702808D01*
X478020D01*
Y714808D01*
X476334D01*
Y716381D01*
X485207Y725253D01*
X485708Y726004D01*
X485885Y726890D01*
Y732805D01*
X492350D01*
Y727620D01*
X510350D01*
Y732805D01*
X515440D01*
Y730620D01*
X530440D01*
Y739620D01*
X515440D01*
Y737434D01*
X510350D01*
Y742620D01*
X492350D01*
Y737434D01*
X485885D01*
Y743400D01*
X485708Y744286D01*
X485207Y745037D01*
X482075Y748169D01*
Y749720D01*
X487260D01*
Y758720D01*
D02*
G37*
G36*
X440840Y762952D02*
X422840D01*
Y747952D01*
X424525D01*
Y727452D01*
X424702Y726567D01*
X425203Y725816D01*
X434306Y716713D01*
X433820Y715540D01*
X430350D01*
Y706540D01*
X435536D01*
Y703352D01*
X435507Y703333D01*
X434789Y702258D01*
X434536Y700990D01*
X434789Y699722D01*
X435507Y698647D01*
X436582Y697929D01*
X437850Y697676D01*
X437884Y697683D01*
X442203Y693363D01*
X442954Y692862D01*
X443840Y692685D01*
X449367D01*
X449752Y691415D01*
X448956Y690884D01*
X448072Y689561D01*
X447762Y688000D01*
X448072Y686439D01*
X448956Y685116D01*
X450279Y684232D01*
X451840Y683922D01*
X453401Y684232D01*
X454724Y685116D01*
X455104Y685685D01*
X548820D01*
X549706Y685862D01*
X550457Y686363D01*
X550647Y686554D01*
X551265Y686402D01*
X551924Y686035D01*
X552192Y684689D01*
X553076Y683366D01*
X554399Y682482D01*
X555960Y682172D01*
X557521Y682482D01*
X558844Y683366D01*
X559224Y683935D01*
X561820D01*
Y677250D01*
X576820D01*
Y695250D01*
X561820D01*
Y688565D01*
X559224D01*
X558844Y689134D01*
X557521Y690018D01*
X556175Y690286D01*
X555808Y690945D01*
X555656Y691563D01*
X561638Y697545D01*
X562310Y697412D01*
X563871Y697722D01*
X565194Y698606D01*
X566078Y699929D01*
X566388Y701490D01*
X566078Y703051D01*
X565194Y704374D01*
X564624Y704754D01*
Y707350D01*
X572580D01*
Y711265D01*
X577670D01*
Y709080D01*
X592670D01*
Y718080D01*
X577670D01*
Y715894D01*
X572580D01*
Y722350D01*
X554580D01*
Y717165D01*
X530440D01*
Y720620D01*
X515440D01*
Y711620D01*
X530440D01*
Y712536D01*
X554580D01*
Y707350D01*
X559996D01*
Y704754D01*
X559426Y704374D01*
X558542Y703051D01*
X558232Y701490D01*
X558365Y700818D01*
X547861Y690314D01*
X455104D01*
X454724Y690884D01*
X453928Y691415D01*
X454313Y692685D01*
X524840D01*
X525726Y692862D01*
X526477Y693363D01*
X530799Y697685D01*
X545576D01*
X545956Y697116D01*
X547279Y696232D01*
X548840Y695922D01*
X550401Y696232D01*
X551724Y697116D01*
X552608Y698439D01*
X552918Y700000D01*
X552608Y701561D01*
X551724Y702884D01*
X550401Y703768D01*
X548840Y704078D01*
X547279Y703768D01*
X545956Y702884D01*
X545576Y702315D01*
X529840D01*
X528954Y702138D01*
X528705Y701972D01*
X528204Y701637D01*
X523881Y697315D01*
X444799D01*
X441157Y700956D01*
X441164Y700990D01*
X440911Y702258D01*
X440193Y703333D01*
X440164Y703352D01*
Y706540D01*
X445350D01*
Y708174D01*
X446620Y708497D01*
X447946Y707171D01*
X448697Y706669D01*
X449582Y706493D01*
X451021D01*
Y702808D01*
X459020D01*
Y714808D01*
X457335D01*
Y718722D01*
X459274Y720661D01*
X460445Y720035D01*
X460442Y720020D01*
X460752Y718459D01*
X461636Y717136D01*
X462206Y716756D01*
Y714808D01*
X460520D01*
Y702808D01*
X468520D01*
Y714808D01*
X466834D01*
Y716756D01*
X467404Y717136D01*
X468288Y718459D01*
X468598Y720020D01*
X468288Y721581D01*
X467404Y722904D01*
X466081Y723788D01*
X464520Y724098D01*
X464505Y724095D01*
X463879Y725266D01*
X468846Y730233D01*
X470020Y729747D01*
Y728812D01*
X478020D01*
Y740812D01*
X470020D01*
Y737100D01*
X469267Y736951D01*
X468516Y736449D01*
X461734Y729667D01*
X460560Y730153D01*
Y733542D01*
X456291D01*
Y727272D01*
X457680D01*
X458166Y726099D01*
X453384Y721317D01*
X452882Y720566D01*
X452706Y719680D01*
Y714808D01*
X451021D01*
Y712439D01*
X449751Y711913D01*
X448987Y712677D01*
X448236Y713178D01*
X447350Y713354D01*
X445350D01*
Y715540D01*
X440164D01*
Y716442D01*
X439988Y717328D01*
X439487Y718079D01*
X433199Y724367D01*
X433685Y725540D01*
X445350D01*
Y734540D01*
X440164D01*
Y737596D01*
X440734Y737976D01*
X441618Y739299D01*
X441928Y740860D01*
X441618Y742421D01*
X440734Y743744D01*
X439411Y744628D01*
X437850Y744938D01*
X436289Y744628D01*
X434966Y743744D01*
X434082Y742421D01*
X433772Y740860D01*
X434082Y739299D01*
X434966Y737976D01*
X435536Y737596D01*
Y734540D01*
X430350D01*
X430350Y734540D01*
Y734540D01*
X429154Y734719D01*
Y747952D01*
X440840D01*
Y762952D01*
D02*
G37*
G36*
X453750Y733542D02*
X449481D01*
Y727272D01*
X453750D01*
Y733542D01*
D02*
G37*
G36*
X583900Y738620D02*
X576130D01*
Y733850D01*
X583900D01*
Y738620D01*
D02*
G37*
G36*
X460560Y742352D02*
X456291D01*
Y736082D01*
X460560D01*
Y742352D01*
D02*
G37*
G36*
X453750D02*
X449481D01*
Y736082D01*
X453750D01*
Y742352D01*
D02*
G37*
G36*
X594210Y738620D02*
X586440D01*
Y733850D01*
X594210D01*
Y738620D01*
D02*
G37*
G36*
X255630Y727340D02*
X250860D01*
Y719570D01*
X255630D01*
Y727340D01*
D02*
G37*
G36*
X403640Y728040D02*
X394640D01*
Y722778D01*
X392054D01*
X391168Y722602D01*
X390418Y722101D01*
X386833Y718516D01*
X385660Y719003D01*
Y723190D01*
X370660D01*
Y705190D01*
X385660D01*
Y711876D01*
X385780D01*
X386666Y712052D01*
X387417Y712553D01*
X393013Y718149D01*
X394640D01*
Y713040D01*
X396750D01*
Y687584D01*
X394000D01*
Y676440D01*
X404128D01*
Y687584D01*
X401379D01*
Y695047D01*
X401960Y696076D01*
X402649Y696076D01*
X407294D01*
Y703188D01*
Y710300D01*
X402649D01*
X401960Y710300D01*
X401379Y711329D01*
X401379Y711329D01*
Y713040D01*
X403640D01*
Y728040D01*
D02*
G37*
G36*
X262940Y717030D02*
X258170D01*
Y709260D01*
X262940D01*
Y717030D01*
D02*
G37*
G36*
Y727340D02*
X258170D01*
Y719570D01*
X262940D01*
Y727340D01*
D02*
G37*
G36*
X594210Y731310D02*
X586440D01*
Y726540D01*
X594210D01*
Y731310D01*
D02*
G37*
G36*
X583900D02*
X576130D01*
Y726540D01*
X583900D01*
Y731310D01*
D02*
G37*
G36*
X422640Y728040D02*
X413640D01*
Y724270D01*
X413640Y724269D01*
X412370Y723707D01*
X411471Y724308D01*
X409910Y724618D01*
X408349Y724308D01*
X407026Y723424D01*
X406142Y722101D01*
X405832Y720540D01*
X406142Y718979D01*
X407026Y717656D01*
X408349Y716772D01*
X409910Y716462D01*
X411471Y716772D01*
X412370Y717373D01*
X413640Y716811D01*
X413640Y716810D01*
Y713040D01*
X422640D01*
Y728040D01*
D02*
G37*
G36*
X562996Y771024D02*
X561435Y770714D01*
X560112Y769830D01*
X559228Y768507D01*
X558918Y766946D01*
X559228Y765385D01*
X560112Y764062D01*
X560682Y763682D01*
Y761244D01*
X557932D01*
Y757987D01*
X548908D01*
Y761244D01*
X538780D01*
Y750100D01*
X548908D01*
Y753357D01*
X557034D01*
X557932Y752459D01*
Y750584D01*
X557932Y750362D01*
X556797Y749775D01*
X556724Y749884D01*
X555401Y750768D01*
X553840Y751078D01*
X552279Y750768D01*
X550956Y749884D01*
X550072Y748561D01*
X549762Y747000D01*
X550072Y745439D01*
X550956Y744116D01*
X552279Y743232D01*
X553840Y742922D01*
X555401Y743232D01*
X556724Y744116D01*
X557104Y744686D01*
X559881D01*
X561266Y743301D01*
Y741350D01*
X554580D01*
Y726350D01*
X572580D01*
Y741350D01*
X565895D01*
Y744260D01*
X565718Y745146D01*
X565217Y745897D01*
X562477Y748637D01*
X562187Y748830D01*
X562572Y750100D01*
X568060D01*
Y761244D01*
X565311D01*
Y763682D01*
X565880Y764062D01*
X566764Y765385D01*
X567074Y766946D01*
X566764Y768507D01*
X565880Y769830D01*
X564557Y770714D01*
X562996Y771024D01*
D02*
G37*
G36*
X595710Y764530D02*
X586440D01*
Y756760D01*
X595710D01*
Y764530D01*
D02*
G37*
G36*
X464900D02*
X455630D01*
Y756760D01*
X464900D01*
Y764530D01*
D02*
G37*
G36*
X585170Y791928D02*
X583609Y791618D01*
X582286Y790734D01*
X581402Y789411D01*
X581092Y787850D01*
X581402Y786289D01*
X582286Y784966D01*
X582856Y784586D01*
Y781990D01*
X576170D01*
Y766990D01*
X594170D01*
Y781990D01*
X587485D01*
Y784586D01*
X588054Y784966D01*
X588938Y786289D01*
X589248Y787850D01*
X588938Y789411D01*
X588054Y790734D01*
X586731Y791618D01*
X585170Y791928D01*
D02*
G37*
G36*
X454360Y793198D02*
X452799Y792888D01*
X451476Y792004D01*
X450592Y790681D01*
X450282Y789120D01*
X450592Y787559D01*
X451476Y786236D01*
X452046Y785856D01*
Y781990D01*
X445360D01*
Y776767D01*
X440840D01*
Y781952D01*
X422840D01*
Y766952D01*
X440840D01*
Y772138D01*
X445360D01*
Y766990D01*
X463360D01*
Y781990D01*
X456674D01*
Y785856D01*
X457244Y786236D01*
X458128Y787559D01*
X458438Y789120D01*
X458128Y790681D01*
X457244Y792004D01*
X455921Y792888D01*
X454360Y793198D01*
D02*
G37*
G36*
X553420Y791928D02*
X551859Y791618D01*
X550536Y790734D01*
X549652Y789411D01*
X549342Y787850D01*
X549652Y786289D01*
X550536Y784966D01*
X551030Y784637D01*
Y782420D01*
X548280D01*
Y771276D01*
X558408D01*
Y782420D01*
X555658D01*
Y784535D01*
X556304Y784966D01*
X557188Y786289D01*
X557498Y787850D01*
X557188Y789411D01*
X556304Y790734D01*
X554981Y791618D01*
X553420Y791928D01*
D02*
G37*
G36*
X479760Y788118D02*
X478199Y787808D01*
X476876Y786924D01*
X475992Y785601D01*
X475682Y784040D01*
X475992Y782479D01*
X476876Y781156D01*
X477446Y780776D01*
Y777720D01*
X472260D01*
Y768720D01*
X487260D01*
Y777720D01*
X482075D01*
Y780776D01*
X482644Y781156D01*
X483528Y782479D01*
X483838Y784040D01*
X483528Y785601D01*
X482644Y786924D01*
X481321Y787808D01*
X479760Y788118D01*
D02*
G37*
G36*
X583900Y754220D02*
X574630D01*
Y746450D01*
X583900D01*
Y754220D01*
D02*
G37*
G36*
X464900D02*
X455630D01*
Y746450D01*
X464900D01*
Y754220D01*
D02*
G37*
G36*
X453090D02*
X443820D01*
Y746450D01*
X453090D01*
Y754220D01*
D02*
G37*
G36*
X595710D02*
X586440D01*
Y746450D01*
X595710D01*
Y754220D01*
D02*
G37*
G36*
X583900Y764530D02*
X574630D01*
Y756760D01*
X583900D01*
Y764530D01*
D02*
G37*
G36*
X453090D02*
X443820D01*
Y756760D01*
X453090D01*
Y764530D01*
D02*
G37*
G36*
X341840Y759353D02*
X338707Y758941D01*
X335788Y757732D01*
X333281Y755808D01*
X331358Y753302D01*
X330860Y752099D01*
X329590Y752352D01*
Y756000D01*
X318090D01*
Y738000D01*
X321525D01*
Y724871D01*
X320395Y724116D01*
X319511Y722793D01*
X319201Y721232D01*
X319511Y719671D01*
X320395Y718348D01*
X321718Y717464D01*
X323279Y717154D01*
X324840Y717464D01*
X326163Y718348D01*
X327047Y719671D01*
X327358Y721232D01*
X327047Y722793D01*
X326163Y724116D01*
X326154Y724122D01*
Y738000D01*
X329590D01*
Y742148D01*
X330860Y742400D01*
X331358Y741198D01*
X333281Y738691D01*
X335788Y736768D01*
X338707Y735559D01*
X341840Y735146D01*
X344973Y735559D01*
X347892Y736768D01*
X350398Y738691D01*
X352322Y741198D01*
X352820Y742400D01*
X354090Y742148D01*
Y738000D01*
X365590D01*
Y744685D01*
X375076D01*
X375456Y744116D01*
X376779Y743232D01*
X378340Y742922D01*
X379901Y743232D01*
X381224Y744116D01*
X382108Y745439D01*
X382418Y747000D01*
X382108Y748561D01*
X381224Y749884D01*
X379901Y750768D01*
X378340Y751078D01*
X376779Y750768D01*
X375456Y749884D01*
X375076Y749314D01*
X365590D01*
Y756000D01*
X354090D01*
Y752352D01*
X352820Y752099D01*
X352322Y753302D01*
X350398Y755808D01*
X347892Y757732D01*
X344973Y758941D01*
X341840Y759353D01*
D02*
G37*
G36*
X320090Y691480D02*
X315320D01*
Y683710D01*
X320090D01*
Y691480D01*
D02*
G37*
G36*
X312780D02*
X308010D01*
Y683710D01*
X312780D01*
Y691480D01*
D02*
G37*
G36*
X387200Y688790D02*
X379430D01*
Y679520D01*
X387200D01*
Y688790D01*
D02*
G37*
G36*
X675840Y689952D02*
X666840D01*
Y684466D01*
X665665Y684052D01*
X665570Y684070D01*
X664724Y685336D01*
X663401Y686220D01*
X661840Y686531D01*
X660279Y686220D01*
X658956Y685336D01*
X658576Y684767D01*
X656840D01*
Y689952D01*
X647840D01*
Y674952D01*
X656840D01*
Y680138D01*
X658576D01*
X658956Y679568D01*
X660279Y678684D01*
X661840Y678374D01*
X663401Y678684D01*
X664724Y679568D01*
X665570Y680835D01*
X665665Y680853D01*
X666840Y680439D01*
Y674952D01*
X675840D01*
Y680138D01*
X682840D01*
Y674919D01*
X700840D01*
Y689918D01*
X682840D01*
Y684767D01*
X675840D01*
Y689952D01*
D02*
G37*
G36*
X597360Y696790D02*
X589590D01*
Y687520D01*
X597360D01*
Y696790D01*
D02*
G37*
G36*
X587050D02*
X579280D01*
Y687520D01*
X587050D01*
Y696790D01*
D02*
G37*
G36*
X638620Y690600D02*
X620620D01*
Y685415D01*
X615530D01*
Y687600D01*
X600530D01*
Y678600D01*
X615530D01*
Y680786D01*
X620620D01*
Y675600D01*
X624636D01*
Y667468D01*
X618950D01*
X617389Y667158D01*
X616066Y666274D01*
X615182Y664951D01*
X614872Y663390D01*
X615182Y661829D01*
X616066Y660506D01*
X617389Y659622D01*
X618950Y659312D01*
X634950D01*
X636511Y659622D01*
X637834Y660506D01*
X638718Y661829D01*
X639028Y663390D01*
X638718Y664951D01*
X637834Y666274D01*
X636511Y667158D01*
X634950Y667468D01*
X629265D01*
Y675600D01*
X638620D01*
Y690600D01*
D02*
G37*
G36*
X312780Y681170D02*
X308010D01*
Y673400D01*
X312780D01*
Y681170D01*
D02*
G37*
G36*
X555840Y678404D02*
X481030D01*
X480144Y678228D01*
X479895Y678062D01*
X479394Y677727D01*
X464686Y663019D01*
X463750Y662310D01*
Y662310D01*
X463750Y662310D01*
X438750D01*
Y654310D01*
X463750D01*
Y656095D01*
X464136Y656172D01*
X464887Y656673D01*
X481989Y673775D01*
X554791D01*
X557895Y670671D01*
X557762Y670000D01*
X558072Y668439D01*
X558956Y667116D01*
X560279Y666232D01*
X561840Y665921D01*
X563401Y666232D01*
X564724Y667116D01*
X565608Y668439D01*
X565918Y670000D01*
X565608Y671561D01*
X564724Y672884D01*
X563401Y673768D01*
X561840Y674078D01*
X561168Y673945D01*
X557658Y677455D01*
X557477Y677727D01*
X556726Y678228D01*
X555840Y678404D01*
D02*
G37*
G36*
X596600Y667468D02*
X595039Y667158D01*
X593716Y666274D01*
X593336Y665704D01*
X590214D01*
X589834Y666274D01*
X588511Y667158D01*
X586950Y667468D01*
X570950D01*
X569389Y667158D01*
X568066Y666274D01*
X567182Y664951D01*
X566872Y663390D01*
X567182Y661829D01*
X568066Y660506D01*
X569389Y659622D01*
X570950Y659312D01*
X586950D01*
X588511Y659622D01*
X589834Y660506D01*
X590214Y661076D01*
X593336D01*
X593716Y660506D01*
X595039Y659622D01*
X596600Y659312D01*
X598161Y659622D01*
X599484Y660506D01*
X600368Y661829D01*
X600678Y663390D01*
X600368Y664951D01*
X599484Y666274D01*
X598161Y667158D01*
X596600Y667468D01*
D02*
G37*
G36*
X320090Y681170D02*
X315320D01*
Y673400D01*
X320090D01*
Y681170D01*
D02*
G37*
G36*
X376890Y688790D02*
X369120D01*
Y679520D01*
X376890D01*
Y688790D01*
D02*
G37*
G36*
X597360Y684980D02*
X589590D01*
Y675710D01*
X597360D01*
Y684980D01*
D02*
G37*
G36*
X587050D02*
X579280D01*
Y675710D01*
X587050D01*
Y684980D01*
D02*
G37*
G36*
X510350Y723620D02*
X492350D01*
Y708620D01*
X500306D01*
Y706024D01*
X499736Y705644D01*
X498852Y704321D01*
X498542Y702760D01*
X498852Y701199D01*
X499736Y699876D01*
X501059Y698992D01*
X502620Y698682D01*
X504181Y698992D01*
X505504Y699876D01*
X506388Y701199D01*
X506698Y702760D01*
X506388Y704321D01*
X505504Y705644D01*
X504935Y706024D01*
Y708620D01*
X510350D01*
Y723620D01*
D02*
G37*
G36*
X638620Y709600D02*
X620620D01*
Y694600D01*
X638620D01*
Y699785D01*
X648488D01*
X648712Y698659D01*
X649596Y697336D01*
X650919Y696452D01*
X652480Y696142D01*
X654041Y696452D01*
X655364Y697336D01*
X656248Y698659D01*
X656558Y700220D01*
X656248Y701781D01*
X655364Y703104D01*
X654041Y703988D01*
X652480Y704298D01*
X651645Y704132D01*
X651486Y704238D01*
X650600Y704414D01*
X638620D01*
Y709600D01*
D02*
G37*
G36*
X415168Y701918D02*
X409834D01*
Y696076D01*
X415168D01*
Y701918D01*
D02*
G37*
G36*
X606760Y708140D02*
X598990D01*
Y703370D01*
X606760D01*
Y708140D01*
D02*
G37*
G36*
X255630Y717030D02*
X250860D01*
Y709260D01*
X255630D01*
Y717030D01*
D02*
G37*
G36*
X409834Y710300D02*
Y704458D01*
X415168D01*
Y710300D01*
X409834D01*
D02*
G37*
G36*
X617070Y708140D02*
X609300D01*
Y703370D01*
X617070D01*
Y708140D01*
D02*
G37*
G36*
X387200Y700600D02*
X379430D01*
Y691330D01*
X387200D01*
Y700600D01*
D02*
G37*
G36*
X366660Y723190D02*
X351660D01*
Y705190D01*
X356846D01*
Y699060D01*
X351660D01*
Y692374D01*
X349064D01*
X348684Y692944D01*
X347361Y693828D01*
X345800Y694138D01*
X344239Y693828D01*
X342916Y692944D01*
X342032Y691621D01*
X341722Y690060D01*
X342032Y688499D01*
X342916Y687176D01*
X344239Y686292D01*
X345800Y685982D01*
X347361Y686292D01*
X348684Y687176D01*
X349064Y687746D01*
X351660D01*
Y681060D01*
X366660D01*
Y699060D01*
X361474D01*
Y705190D01*
X366660D01*
Y723190D01*
D02*
G37*
G36*
X280400Y701370D02*
X271400D01*
Y686370D01*
X272316D01*
Y681280D01*
X267130D01*
Y663280D01*
X282130D01*
Y681280D01*
X276945D01*
Y686370D01*
X280400D01*
Y691555D01*
X283283D01*
X283376Y691416D01*
X284699Y690532D01*
X286260Y690222D01*
X287821Y690532D01*
X289144Y691416D01*
X290028Y692739D01*
X290338Y694300D01*
X290028Y695861D01*
X289144Y697184D01*
X287821Y698068D01*
X286260Y698378D01*
X284699Y698068D01*
X283376Y697184D01*
X282708Y696184D01*
X280400D01*
Y701370D01*
D02*
G37*
G36*
X376890Y700600D02*
X369120D01*
Y691330D01*
X376890D01*
Y700600D01*
D02*
G37*
G36*
X314660Y720808D02*
X313099Y720498D01*
X311776Y719614D01*
X310892Y718291D01*
X310582Y716730D01*
X310892Y715169D01*
X311776Y713846D01*
X312346Y713466D01*
Y710260D01*
X309550D01*
Y695260D01*
X318550D01*
Y710260D01*
X316975D01*
Y713466D01*
X317544Y713846D01*
X318428Y715169D01*
X318738Y716730D01*
X318428Y718291D01*
X317544Y719614D01*
X316221Y720498D01*
X314660Y720808D01*
D02*
G37*
G36*
X606760Y700830D02*
X598990D01*
Y696060D01*
X606760D01*
Y700830D01*
D02*
G37*
G36*
X617070D02*
X609300D01*
Y696060D01*
X617070D01*
Y700830D01*
D02*
G37*
%LPD*%
G36*
X465866Y535569D02*
X466875Y534894D01*
X466503Y533624D01*
X343324D01*
X342944Y534194D01*
X341935Y534868D01*
X342306Y536138D01*
X465486D01*
X465866Y535569D01*
D02*
G37*
G36*
X466404Y541696D02*
X465866Y541336D01*
X465486Y540767D01*
X390069D01*
X389474Y541812D01*
X390057Y542966D01*
X466019D01*
X466404Y541696D01*
D02*
G37*
D10*
X707000Y617750D02*
D03*
Y636750D02*
D03*
X296880Y642460D02*
D03*
Y661460D02*
D03*
X653750Y624680D02*
D03*
Y643680D02*
D03*
X608030Y683100D02*
D03*
Y702100D02*
D03*
X674070Y624680D02*
D03*
Y643680D02*
D03*
X506430Y594150D02*
D03*
Y575150D02*
D03*
X585170Y713580D02*
D03*
Y732580D02*
D03*
X218840Y559500D02*
D03*
Y578500D02*
D03*
X522940Y735120D02*
D03*
Y716120D02*
D03*
X479760Y773220D02*
D03*
Y754220D02*
D03*
X437850Y730040D02*
D03*
Y711040D02*
D03*
X293070Y625900D02*
D03*
Y606900D02*
D03*
D11*
X218840Y598650D02*
D03*
Y631350D02*
D03*
D12*
X359840Y747000D02*
D03*
X323840D02*
D03*
X291260D02*
D03*
X255260D02*
D03*
D13*
X664520Y585920D02*
D03*
X645520D02*
D03*
X359160Y714190D02*
D03*
X378160D02*
D03*
X359160Y690060D02*
D03*
X378160D02*
D03*
X569320Y686250D02*
D03*
X588320D02*
D03*
X274630Y672280D02*
D03*
X255630D02*
D03*
X274630Y648150D02*
D03*
X255630D02*
D03*
D14*
X629620Y683100D02*
D03*
Y702100D02*
D03*
X585170Y774490D02*
D03*
Y755490D02*
D03*
X454360Y774490D02*
D03*
Y755490D02*
D03*
X563580Y733850D02*
D03*
Y714850D02*
D03*
X501350Y716120D02*
D03*
Y735120D02*
D03*
X441660Y576420D02*
D03*
Y595420D02*
D03*
X293070Y589070D02*
D03*
Y570070D02*
D03*
X691840Y682418D02*
D03*
Y663418D02*
D03*
X431840Y774452D02*
D03*
Y755452D02*
D03*
D15*
X399064Y682012D02*
D03*
X418216D02*
D03*
X408564Y703188D02*
D03*
X315244Y623592D02*
D03*
X334396D02*
D03*
X324744Y644768D02*
D03*
X543844Y755672D02*
D03*
X562996D02*
D03*
X553344Y776848D02*
D03*
D16*
X274448Y608094D02*
D03*
Y627246D02*
D03*
X253272Y617594D02*
D03*
D17*
X376230Y603700D02*
D03*
X357230D02*
D03*
X399140Y720540D02*
D03*
X418140D02*
D03*
X333050Y682440D02*
D03*
X314050D02*
D03*
X671340Y663384D02*
D03*
X652340D02*
D03*
X420680Y603700D02*
D03*
X401680D02*
D03*
X315320Y606240D02*
D03*
X334320D02*
D03*
X314050Y702760D02*
D03*
X333050D02*
D03*
X255630Y569410D02*
D03*
X274630D02*
D03*
X255630Y589730D02*
D03*
X274630D02*
D03*
X275900Y693870D02*
D03*
X256900D02*
D03*
X333050Y662120D02*
D03*
X314050D02*
D03*
X275900Y718300D02*
D03*
X256900D02*
D03*
X671340Y682452D02*
D03*
X652340D02*
D03*
D18*
X364320Y663390D02*
D03*
Y650690D02*
D03*
Y637990D02*
D03*
Y625290D02*
D03*
X412320Y663390D02*
D03*
Y650690D02*
D03*
Y637990D02*
D03*
Y625290D02*
D03*
X578950Y663390D02*
D03*
Y650690D02*
D03*
Y637990D02*
D03*
Y625290D02*
D03*
X626950Y663390D02*
D03*
Y650690D02*
D03*
Y637990D02*
D03*
Y625290D02*
D03*
D19*
X455020Y708808D02*
D03*
X464520D02*
D03*
X474020D02*
D03*
Y734812D02*
D03*
X455020D02*
D03*
D20*
X538750Y645610D02*
D03*
Y632910D02*
D03*
Y658310D02*
D03*
X451250D02*
D03*
Y632910D02*
D03*
Y645610D02*
D03*
D21*
X483838Y607575D02*
D03*
X463838D02*
D03*
D22*
X473838Y574576D02*
D03*
D23*
X729340Y617452D02*
Y642452D01*
X721452Y667452D02*
X729340D01*
X707000Y653000D02*
X721452Y667452D01*
X707000Y636750D02*
Y653000D01*
X707297Y617452D02*
X729340D01*
X340060Y531310D02*
X541990D01*
X385000Y509750D02*
Y531310D01*
X705000Y506410D02*
Y509750D01*
Y513090D01*
X691806Y526284D02*
X705000Y513090D01*
X678590Y480000D02*
X705000Y506410D01*
X231590Y538452D02*
X468750D01*
X218840Y551202D02*
X231590Y538452D01*
X315702Y480000D02*
X678590D01*
X315250Y480452D02*
X315702Y480000D01*
X586340Y509750D02*
X608340D01*
X296880Y642460D02*
Y651920D01*
X497628Y606788D02*
X498415Y607575D01*
X483838D02*
X498415D01*
X562310Y711040D02*
X564850Y713580D01*
X522940Y716120D02*
X524210Y714850D01*
X563580D01*
X429840Y618000D02*
X440264Y607575D01*
X548820Y688000D02*
X562310Y701490D01*
X451840Y688000D02*
X548820D01*
X429840Y618000D02*
X430840D01*
X440264Y607575D02*
X463838D01*
X472138Y574846D02*
X506126D01*
X412320Y616480D02*
X412800Y616000D01*
X412320Y616480D02*
Y625290D01*
X218840Y578500D02*
Y598650D01*
X541990Y531310D02*
X543260Y532580D01*
X555840Y676000D02*
X561840Y670000D01*
X555840Y676000D02*
Y676090D01*
X481030D02*
X555840D01*
X604830Y637990D02*
X606840Y640000D01*
X578950Y637990D02*
X604830D01*
X538750Y632910D02*
X557460D01*
X566840Y642290D01*
Y648787D01*
X568743Y650690D01*
X578950D01*
X436144Y632910D02*
X451250D01*
X432770Y636284D02*
X436144Y632910D01*
X554690Y658310D02*
X559140Y653860D01*
X538750Y658310D02*
X554690D01*
X559140Y645685D02*
Y653860D01*
X412320Y637990D02*
X423880D01*
X345140Y625290D02*
X364320D01*
X345800Y690060D02*
X359160D01*
X451250Y658310D02*
X463250D01*
X481030Y676090D01*
X359160Y690060D02*
Y714190D01*
X397210Y637990D02*
X412320D01*
X390860Y631640D02*
X397210Y637990D01*
X394670Y650690D02*
X412320D01*
X384510Y640530D02*
X394670Y650690D01*
X390860Y610050D02*
X397210Y603700D01*
X401680D01*
X390860Y610050D02*
Y631640D01*
X384510Y608780D02*
Y640530D01*
X379430Y603700D02*
X384510Y608780D01*
X374960Y603700D02*
X379430D01*
X378160Y714190D02*
X379430Y712920D01*
X399064Y720464D02*
X399140Y720540D01*
X378160Y714190D02*
X385780D01*
X392054Y720464D01*
X399064D01*
X432770Y645610D02*
X451250D01*
X432770Y636284D02*
Y645610D01*
Y672280D01*
X578950Y615260D02*
Y625290D01*
X578820Y615130D02*
X578950Y615260D01*
X626950Y637990D02*
X638510D01*
X644200Y643680D01*
X653750D01*
X674070Y637990D02*
Y643680D01*
X670260Y634180D02*
X674070Y637990D01*
X656290Y634180D02*
X670260D01*
X653750Y631640D02*
X656290Y634180D01*
X653750Y624680D02*
Y631640D01*
X674070Y643680D02*
X682350D01*
X653140Y644290D02*
Y662120D01*
Y644290D02*
X653750Y643680D01*
X578950Y663390D02*
X596600D01*
X555960Y686250D02*
X569320D01*
X608030Y683100D02*
X629620D01*
X626950Y680430D02*
X629620Y683100D01*
X626950Y663390D02*
Y680430D01*
X629620Y702100D02*
X650600D01*
X652480Y700220D01*
X682350Y643680D02*
X685500Y640530D01*
X409910Y720540D02*
X418140D01*
X274630Y672280D02*
Y692600D01*
X275900Y693870D01*
X256900Y673550D02*
Y693870D01*
X255630Y672280D02*
X256900Y673550D01*
X242346Y617594D02*
X253272D01*
X242270Y617670D02*
X242346Y617594D01*
X242270Y569410D02*
X255630D01*
Y589730D02*
Y604310D01*
X254970Y604970D02*
X255630Y604310D01*
X293070Y570070D02*
X307700D01*
X274630Y569410D02*
Y589730D01*
X292410D01*
X274630D02*
Y607912D01*
X293070Y589070D02*
Y606900D01*
X274448Y608094D02*
X291876D01*
X275794Y625900D02*
X293070D01*
X334396Y623592D02*
X343442D01*
X345140Y625290D01*
X296880Y661460D02*
X313390D01*
X274448Y627246D02*
Y647968D01*
X315244Y623592D02*
Y636136D01*
X314660Y636720D02*
X315244Y636136D01*
X314660Y703370D02*
Y716730D01*
X333050Y682440D02*
Y702760D01*
Y662120D02*
X334320Y663390D01*
X364320D02*
X383240D01*
X384510Y662120D01*
X346410Y650690D02*
X364320D01*
X254970Y647490D02*
X255630Y648150D01*
X254970Y631640D02*
Y647490D01*
X247350Y672280D02*
X255630D01*
X242270Y667200D02*
X247350Y672280D01*
X242270Y617670D02*
Y667200D01*
X423880Y637990D02*
X444200Y617670D01*
X506430Y594150D02*
X514710D01*
X530560Y578300D01*
X543260D01*
X437850Y711040D02*
X447350D01*
X449582Y708808D01*
X455020D01*
X474020D02*
Y717340D01*
X483595Y735120D02*
X501350D01*
X474020Y717340D02*
X483570Y726890D01*
Y735145D02*
X483595Y735120D01*
X483570Y726890D02*
Y735145D01*
X501350Y735120D02*
X522940D01*
X501350Y735120D02*
X501350Y735120D01*
X501350Y716120D02*
X502620Y714850D01*
Y702760D02*
Y714850D01*
X464520Y708808D02*
Y719770D01*
X437850Y730040D02*
Y740860D01*
X564850Y713580D02*
X585170D01*
X522940Y716120D02*
Y716730D01*
X543844Y755672D02*
X562996D01*
Y766946D01*
X562310Y701490D02*
Y711040D01*
X563580Y714850D02*
X564850Y713580D01*
X585170Y774490D02*
Y787850D01*
X553344Y776848D02*
Y787774D01*
X553420Y787850D01*
X479760Y773220D02*
Y784040D01*
X454360Y774490D02*
Y789120D01*
X420070Y603090D02*
X420680Y603700D01*
X420070Y589730D02*
Y603090D01*
X441660Y595420D02*
X442930Y594150D01*
X506430D01*
X433380Y576420D02*
X441660D01*
X420070Y589730D02*
X433380Y576420D01*
X334320Y663390D02*
X364320D01*
X333050Y662120D02*
Y682440D01*
X343368Y637990D02*
X364320D01*
X314050Y662120D02*
X319238D01*
X343368Y637990D01*
X483570Y735145D02*
Y743400D01*
X479760Y747210D02*
Y754220D01*
Y747210D02*
X483570Y743400D01*
X399064Y682012D02*
Y720464D01*
X418216Y682012D02*
X423038D01*
X432770Y672280D01*
X437850Y700990D02*
Y711040D01*
X529840Y700000D02*
X548840D01*
X555960Y617670D02*
X558500Y620210D01*
X444200Y617670D02*
X555960D01*
X549840Y608000D02*
X583840D01*
X601130Y625290D01*
X437850Y700990D02*
X443840Y695000D01*
X524840D01*
X529840Y700000D01*
X664520Y585920D02*
X680760D01*
X680840Y586000D01*
X594060Y565220D02*
Y578300D01*
X242270Y555570D02*
Y569410D01*
Y555570D02*
X251840Y546000D01*
X380387D01*
X385780Y545280D02*
X385839Y545221D01*
X380387Y546000D02*
X383656Y549269D01*
X385839Y543999D02*
Y545221D01*
X578109Y549269D02*
X594060Y565220D01*
X383656Y549269D02*
X578109D01*
X553840Y747000D02*
X560840D01*
X563580Y744260D01*
Y733850D02*
Y744260D01*
X455020Y708808D02*
Y719680D01*
X470152Y734812D01*
X474020D01*
X315320Y591520D02*
Y606240D01*
Y591520D02*
X316840Y590000D01*
X359840Y747000D02*
X378340D01*
X323840Y721793D02*
Y747000D01*
X323279Y721232D02*
X323840Y721793D01*
X324744Y630781D02*
Y644768D01*
Y630781D02*
X324840Y630685D01*
X275900Y693870D02*
X285830D01*
X275900Y718300D02*
X285260D01*
X291260Y724300D01*
Y747000D01*
X228560D02*
X255260D01*
X228260Y747300D02*
X228560Y747000D01*
X385780Y545280D02*
X550810D01*
X218840Y551202D02*
Y559500D01*
X550810Y545280D02*
X586340Y509750D01*
X437850Y711040D02*
Y716442D01*
X426840Y727452D02*
X437850Y716442D01*
X426840Y727452D02*
Y750452D01*
X431840Y755452D01*
Y774452D02*
X454322D01*
X671340Y663384D02*
X691806D01*
X671340Y682452D02*
X691806D01*
X652340D02*
X661840D01*
X601130Y625290D02*
X626950D01*
X691806Y526284D02*
Y663384D01*
X674070Y615222D02*
Y624680D01*
Y615222D02*
X674340Y614952D01*
X685500Y613612D02*
Y640530D01*
X596600Y610050D02*
X599198Y607452D01*
X679340D01*
X685500Y613612D01*
X160000Y452700D02*
G03*
X168980Y431020I30661J0D01*
G01*
X351020Y248980D02*
G03*
X372700Y240000I21680J21680D01*
G01*
X617300D02*
G03*
X638980Y248980I0J30661D01*
G01*
X821020Y431020D02*
G03*
X830000Y452700I-21680J21680D01*
G01*
Y778300D02*
G03*
X801580Y808300I-29210J790D01*
G01*
X188420D02*
G03*
X160000Y778300I790J-29210D01*
G01*
Y452700D02*
Y458300D01*
X168980Y431020D02*
X351020Y248980D01*
X372700Y240000D02*
X617300D01*
X638980Y248980D02*
X821020Y431020D01*
X830000Y452700D02*
Y458300D01*
X188420Y808300D02*
X801580D01*
X830000Y458300D02*
Y778300D01*
X160000Y458300D02*
Y778300D01*
D24*
X341840Y747250D02*
D03*
X273260D02*
D03*
D25*
X495000Y645610D02*
D03*
D26*
X200000Y500000D02*
D03*
Y760000D02*
D03*
X790000D02*
D03*
Y500000D02*
D03*
X670000Y339952D02*
D03*
X320000D02*
D03*
D27*
X544940Y577750D02*
D03*
D28*
X570340D02*
D03*
X595740D02*
D03*
D29*
X605000Y509750D02*
D03*
X655000D02*
D03*
X705000D02*
D03*
X285000D02*
D03*
X335000D02*
D03*
X385000D02*
D03*
D30*
X469200Y509952D02*
D03*
D31*
X520000D02*
D03*
D32*
X729340Y667452D02*
D03*
Y642452D02*
D03*
Y617452D02*
D03*
D33*
X468750Y538452D02*
D03*
X315250Y480452D02*
D03*
X296840Y651920D02*
D03*
X497628Y606788D02*
D03*
X451840Y688000D02*
D03*
X430840Y618000D02*
D03*
X412800Y616000D02*
D03*
X561840Y670000D02*
D03*
X606840Y640000D02*
D03*
X559140Y645685D02*
D03*
X345140Y625290D02*
D03*
X345800Y690060D02*
D03*
X578820Y615130D02*
D03*
X596600Y663390D02*
D03*
Y610050D02*
D03*
X555960Y686250D02*
D03*
X652480Y700220D02*
D03*
X394670Y650690D02*
D03*
X409910Y720540D02*
D03*
X242270Y617670D02*
D03*
Y569410D02*
D03*
X254970Y604970D02*
D03*
X307700Y570070D02*
D03*
X314660Y636720D02*
D03*
Y716730D02*
D03*
X384510Y662120D02*
D03*
X543260Y532580D02*
D03*
X346410Y650690D02*
D03*
X340060Y531310D02*
D03*
X254970Y631640D02*
D03*
X558500Y620210D02*
D03*
X502620Y702760D02*
D03*
X464520Y720020D02*
D03*
X437850Y740860D02*
D03*
X562996Y766946D02*
D03*
X562310Y701490D02*
D03*
X585170Y787850D02*
D03*
X553420D02*
D03*
X479760Y784040D02*
D03*
X454360Y789120D02*
D03*
X420070Y589730D02*
D03*
X548840Y700000D02*
D03*
X549840Y608000D02*
D03*
X680840Y586000D02*
D03*
X385839Y543999D02*
D03*
X553840Y747000D02*
D03*
X316840Y590000D02*
D03*
X378340Y747000D02*
D03*
X323279Y721232D02*
D03*
X324840Y630685D02*
D03*
X286260Y694300D02*
D03*
X228260Y747300D02*
D03*
X661840Y682452D02*
D03*
X609340Y624952D02*
D03*
X674340Y614952D02*
D03*
D34*
X437850Y700990D02*
D03*
M02*
