G04*
G04 #@! TF.GenerationSoftware,Altium Limited,CircuitStudio,1.5.2 (1.5.2.30)*
G04*
G04 Layer_Color=15065295*
%FSLAX44Y44*%
%MOMM*%
G71*
G01*
G75*
%ADD23C,0.2540*%
%ADD35C,0.2500*%
%ADD36C,0.4000*%
%ADD37C,0.5000*%
%ADD38C,0.1000*%
%ADD39C,0.2000*%
%ADD40C,0.2032*%
%ADD41C,0.1778*%
D23*
X313590Y734000D02*
Y760000D01*
X315840D01*
X313590Y734000D02*
X315840D01*
X555000Y618110D02*
Y673110D01*
X435000D02*
X555000D01*
X435000Y618110D02*
Y673110D01*
Y618110D02*
X555000D01*
X245010Y734000D02*
Y760000D01*
X247260D01*
X245010Y734000D02*
X247260D01*
X169500Y684200D02*
Y699435D01*
X177117D01*
X179657Y696896D01*
Y691817D01*
X177117Y689278D01*
X169500D01*
X174578D02*
X179657Y684200D01*
X192352D02*
X187274D01*
X184735Y686739D01*
Y691817D01*
X187274Y694357D01*
X192352D01*
X194892Y691817D01*
Y689278D01*
X184735D01*
X199970Y694357D02*
X205048Y684200D01*
X210127Y694357D01*
X240597Y684200D02*
X230440D01*
X240597Y694357D01*
Y696896D01*
X238058Y699435D01*
X232979D01*
X230440Y696896D01*
X186656Y656200D02*
X176500D01*
X186656Y666357D01*
Y668896D01*
X184117Y671435D01*
X179039D01*
X176500Y668896D01*
X191735D02*
X194274Y671435D01*
X199352D01*
X201891Y668896D01*
Y658739D01*
X199352Y656200D01*
X194274D01*
X191735Y658739D01*
Y668896D01*
X217127Y656200D02*
X206970D01*
X217127Y666357D01*
Y668896D01*
X214587Y671435D01*
X209509D01*
X206970Y668896D01*
X222205D02*
X224744Y671435D01*
X229823D01*
X232362Y668896D01*
Y658739D01*
X229823Y656200D01*
X224744D01*
X222205Y658739D01*
Y668896D01*
X797170Y725800D02*
X812405D01*
X807327Y720722D01*
X812405Y715643D01*
X797170D01*
Y702947D02*
Y708026D01*
X799709Y710565D01*
X804788D01*
X807327Y708026D01*
Y702947D01*
X804788Y700408D01*
X802248D01*
Y710565D01*
X797170Y695330D02*
Y690251D01*
Y692791D01*
X812405D01*
Y695330D01*
X807327Y680095D02*
Y675016D01*
X804788Y672477D01*
X797170D01*
Y680095D01*
X799709Y682634D01*
X802248Y680095D01*
Y672477D01*
X797170Y667399D02*
X807327D01*
Y659781D01*
X804788Y657242D01*
X797170D01*
Y652164D02*
Y644546D01*
X799709Y642007D01*
X802248Y644546D01*
Y649625D01*
X804788Y652164D01*
X807327Y649625D01*
Y642007D01*
X797170Y634390D02*
Y629311D01*
X799709Y626772D01*
X804788D01*
X807327Y629311D01*
Y634390D01*
X804788Y636929D01*
X799709D01*
X797170Y634390D01*
Y621694D02*
X807327D01*
Y614076D01*
X804788Y611537D01*
X797170D01*
X812405Y591224D02*
Y581067D01*
Y586145D01*
X797170D01*
Y568371D02*
Y573449D01*
X799709Y575989D01*
X804788D01*
X807327Y573449D01*
Y568371D01*
X804788Y565832D01*
X802248D01*
Y575989D01*
X807327Y550597D02*
Y558214D01*
X804788Y560753D01*
X799709D01*
X797170Y558214D01*
Y550597D01*
X812405Y545518D02*
X797170D01*
X804788D01*
X807327Y542979D01*
Y537901D01*
X804788Y535362D01*
X797170D01*
X763420Y725800D02*
X778655D01*
Y718183D01*
X776116Y715643D01*
X771038D01*
X768498Y718183D01*
Y725800D01*
X763420Y710565D02*
X778655D01*
X763420Y700408D01*
X778655D01*
X763420Y695330D02*
X778655D01*
Y687712D01*
X776116Y685173D01*
X771038D01*
X768498Y687712D01*
Y695330D01*
X771038Y680095D02*
Y669938D01*
X763420Y664860D02*
X778655D01*
Y657242D01*
X776116Y654703D01*
X771038D01*
X768498Y657242D01*
Y664860D01*
X778655Y649625D02*
X765959D01*
X763420Y647085D01*
Y642007D01*
X765959Y639468D01*
X778655D01*
Y634390D02*
X763420D01*
Y626772D01*
X765959Y624233D01*
X776116D01*
X778655Y626772D01*
Y634390D01*
X763420Y603919D02*
X778655D01*
Y596302D01*
X776116Y593763D01*
X771038D01*
X768498Y596302D01*
Y603919D01*
Y598841D02*
X763420Y593763D01*
Y581067D02*
Y586145D01*
X765959Y588684D01*
X771038D01*
X773577Y586145D01*
Y581067D01*
X771038Y578528D01*
X768498D01*
Y588684D01*
X773577Y573449D02*
X763420Y568371D01*
X773577Y563293D01*
X763420Y532822D02*
Y542979D01*
X773577Y532822D01*
X776116D01*
X778655Y535362D01*
Y540440D01*
X776116Y542979D01*
X160000Y452700D02*
G03*
X168980Y431020I30661J0D01*
G01*
X351020Y248980D02*
G03*
X372700Y240000I21680J21680D01*
G01*
X617300D02*
G03*
X638980Y248980I0J30661D01*
G01*
X821020Y431020D02*
G03*
X830000Y452700I-21680J21680D01*
G01*
Y778300D02*
G03*
X801580Y808300I-29210J790D01*
G01*
X188420D02*
G03*
X160000Y778300I790J-29210D01*
G01*
Y452700D02*
Y458300D01*
X168980Y431020D02*
X351020Y248980D01*
X372700Y240000D02*
X617300D01*
X638980Y248980D02*
X821020Y431020D01*
X830000Y452700D02*
Y458300D01*
X188420Y808300D02*
X801580D01*
X830000Y458300D02*
Y778300D01*
X160000Y458300D02*
Y778300D01*
D35*
X221090Y644000D02*
G03*
X221090Y644000I-1250J0D01*
G01*
X365570Y671890D02*
G03*
X365570Y671890I-1250J0D01*
G01*
X580200D02*
G03*
X580200Y671890I-1250J0D01*
G01*
X315840Y760000D02*
X367840D01*
Y734000D02*
Y760000D01*
X315840Y734000D02*
X367840D01*
X315840D02*
Y760000D01*
X367840D01*
Y734000D02*
Y760000D01*
X315840Y734000D02*
X367840D01*
X315840D02*
Y760000D01*
X247260D02*
X299260D01*
Y734000D02*
Y760000D01*
X247260Y734000D02*
X299260D01*
X247260D02*
Y760000D01*
X299260D01*
Y734000D02*
Y760000D01*
X247260Y734000D02*
X299260D01*
X247260D02*
Y760000D01*
D36*
X389320Y661340D02*
G03*
X389320Y661340I-2000J0D01*
G01*
X603950D02*
G03*
X603950Y661340I-2000J0D01*
G01*
D37*
X517639Y645610D02*
G03*
X517639Y645610I-22638J0D01*
G01*
X304840Y747000D02*
X312840D01*
X236260D02*
X244260D01*
D38*
X698000Y612250D02*
Y618250D01*
Y612250D02*
X716000D01*
Y618250D01*
X698000Y636250D02*
Y642250D01*
X716000D01*
Y636250D02*
Y642250D01*
X375730Y594700D02*
X381730D01*
Y612700D01*
X375730D02*
X381730D01*
X351730Y594700D02*
X357730D01*
X351730D02*
Y612700D01*
X357730D01*
X393640Y729540D02*
X399640D01*
X393640Y711540D02*
Y729540D01*
Y711540D02*
X399640D01*
X417640Y729540D02*
X423640D01*
Y711540D02*
Y729540D01*
X417640Y711540D02*
X423640D01*
X332550Y673440D02*
X338550D01*
Y691440D01*
X332550D02*
X338550D01*
X308550Y673440D02*
X314550D01*
X308550D02*
Y691440D01*
X314550D01*
X670840Y654384D02*
X676840D01*
Y672384D01*
X670840D02*
X676840D01*
X646840Y654384D02*
X652840D01*
X646840D02*
Y672384D01*
X652840D01*
X287880Y636960D02*
Y642960D01*
Y636960D02*
X305880D01*
Y642960D01*
X287880Y660960D02*
Y666960D01*
X305880D01*
Y660960D02*
Y666960D01*
X644750Y619180D02*
Y625180D01*
Y619180D02*
X662750D01*
Y625180D01*
X644750Y643180D02*
Y649180D01*
X662750D01*
Y643180D02*
Y649180D01*
X599030Y677600D02*
Y683600D01*
Y677600D02*
X617030D01*
Y683600D01*
X599030Y701600D02*
Y707600D01*
X617030D01*
Y701600D02*
Y707600D01*
X420180Y594700D02*
X426180D01*
Y612700D01*
X420180D02*
X426180D01*
X396180Y594700D02*
X402180D01*
X396180D02*
Y612700D01*
X402180D01*
X665070Y619180D02*
Y625180D01*
Y619180D02*
X683070D01*
Y625180D01*
X665070Y643180D02*
Y649180D01*
X683070D01*
Y643180D02*
Y649180D01*
X309820Y615240D02*
X315820D01*
X309820Y597240D02*
Y615240D01*
Y597240D02*
X315820D01*
X333820Y615240D02*
X339820D01*
Y597240D02*
Y615240D01*
X333820Y597240D02*
X339820D01*
X515430Y593650D02*
Y599650D01*
X497430D02*
X515430D01*
X497430Y593650D02*
Y599650D01*
X515430Y569650D02*
Y575650D01*
X497430Y569650D02*
X515430D01*
X497430D02*
Y575650D01*
X308550Y711760D02*
X314550D01*
X308550Y693760D02*
Y711760D01*
Y693760D02*
X314550D01*
X332550Y711760D02*
X338550D01*
Y693760D02*
Y711760D01*
X332550Y693760D02*
X338550D01*
X576170Y708080D02*
Y714080D01*
Y708080D02*
X594170D01*
Y714080D01*
X576170Y732080D02*
Y738080D01*
X594170D01*
Y732080D02*
Y738080D01*
X250130Y578410D02*
X256130D01*
X250130Y560410D02*
Y578410D01*
Y560410D02*
X256130D01*
X274130Y578410D02*
X280130D01*
Y560410D02*
Y578410D01*
X274130Y560410D02*
X280130D01*
X209840Y554000D02*
Y560000D01*
Y554000D02*
X227840D01*
Y560000D01*
X209840Y578000D02*
Y584000D01*
X227840D01*
Y578000D02*
Y584000D01*
X531940Y734620D02*
Y740620D01*
X513940D02*
X531940D01*
X513940Y734620D02*
Y740620D01*
X531940Y710620D02*
Y716620D01*
X513940Y710620D02*
X531940D01*
X513940D02*
Y716620D01*
X250130Y598730D02*
X256130D01*
X250130Y580730D02*
Y598730D01*
Y580730D02*
X256130D01*
X274130Y598730D02*
X280130D01*
Y580730D02*
Y598730D01*
X274130Y580730D02*
X280130D01*
X488760Y772720D02*
Y778720D01*
X470760D02*
X488760D01*
X470760Y772720D02*
Y778720D01*
X488760Y748720D02*
Y754720D01*
X470760Y748720D02*
X488760D01*
X470760D02*
Y754720D01*
X446850Y729540D02*
Y735540D01*
X428850D02*
X446850D01*
X428850Y729540D02*
Y735540D01*
X446850Y705540D02*
Y711540D01*
X428850Y705540D02*
X446850D01*
X428850D02*
Y711540D01*
X302070Y625400D02*
Y631400D01*
X284070D02*
X302070D01*
X284070Y625400D02*
Y631400D01*
X302070Y601400D02*
Y607400D01*
X284070Y601400D02*
X302070D01*
X284070D02*
Y607400D01*
X275400Y684870D02*
X281400D01*
Y702870D01*
X275400D02*
X281400D01*
X251400Y684870D02*
X257400D01*
X251400D02*
Y702870D01*
X257400D01*
X332550Y653120D02*
X338550D01*
Y671120D01*
X332550D02*
X338550D01*
X308550Y653120D02*
X314550D01*
X308550D02*
Y671120D01*
X314550D01*
X275400Y709300D02*
X281400D01*
Y727300D01*
X275400D02*
X281400D01*
X251400Y709300D02*
X257400D01*
X251400D02*
Y727300D01*
X257400D01*
X670840Y673452D02*
X676840D01*
Y691452D01*
X670840D02*
X676840D01*
X646840Y673452D02*
X652840D01*
X646840D02*
Y691452D01*
X652840D01*
D39*
X210840Y607200D02*
Y622800D01*
X226840Y607200D02*
Y622800D01*
Y638000D01*
X210840Y622800D02*
Y638000D01*
X226840D01*
Y592000D02*
Y607200D01*
X210840Y592000D02*
X226840D01*
X210840D02*
Y607200D01*
Y625000D02*
X226840D01*
X673054Y575760D02*
Y596080D01*
X636986Y575760D02*
Y596080D01*
Y575760D02*
X673054D01*
X636986Y596080D02*
X673054D01*
X350626Y704030D02*
Y724350D01*
X386694Y704030D02*
Y724350D01*
X350626D02*
X386694D01*
X350626Y704030D02*
X386694D01*
X350626Y679900D02*
Y700220D01*
X386694Y679900D02*
Y700220D01*
X350626D02*
X386694D01*
X350626Y679900D02*
X386694D01*
X560786Y676090D02*
Y696410D01*
X596854Y676090D02*
Y696410D01*
X560786D02*
X596854D01*
X560786Y676090D02*
X596854D01*
X619460Y674566D02*
X639780D01*
X619460Y710634D02*
X639780D01*
X619460Y674566D02*
Y710634D01*
X639780Y674566D02*
Y710634D01*
X575010Y783024D02*
X595330D01*
X575010Y746956D02*
X595330D01*
Y783024D01*
X575010Y746956D02*
Y783024D01*
X444200D02*
X464520D01*
X444200Y746956D02*
X464520D01*
Y783024D01*
X444200Y746956D02*
Y783024D01*
X553420Y742384D02*
X573740D01*
X553420Y706316D02*
X573740D01*
Y742384D01*
X553420Y706316D02*
Y742384D01*
X491190Y707586D02*
X511510D01*
X491190Y743654D02*
X511510D01*
X491190Y707586D02*
Y743654D01*
X511510Y707586D02*
Y743654D01*
X431500Y567886D02*
X451820D01*
X431500Y603954D02*
X451820D01*
X431500Y567886D02*
Y603954D01*
X451820Y567886D02*
Y603954D01*
X283164Y662120D02*
Y682440D01*
X247096Y662120D02*
Y682440D01*
Y662120D02*
X283164D01*
X247096Y682440D02*
X283164D01*
X282910Y597604D02*
X303230D01*
X282910Y561536D02*
X303230D01*
Y597604D01*
X282910Y561536D02*
Y597604D01*
X283164Y637990D02*
Y658310D01*
X247096Y637990D02*
Y658310D01*
Y637990D02*
X283164D01*
X247096Y658310D02*
X283164D01*
X379320Y619340D02*
Y669340D01*
X397320Y619340D02*
Y669340D01*
X379320D02*
X397320D01*
X379320Y619340D02*
X397320D01*
X593950D02*
Y669340D01*
X611950Y619340D02*
Y669340D01*
X593950D02*
X611950D01*
X593950Y619340D02*
X611950D01*
X681680Y690952D02*
X702000D01*
X681680Y654884D02*
X702000D01*
Y690952D01*
X681680Y654884D02*
Y690952D01*
X421680Y782986D02*
X442000D01*
X421680Y746918D02*
X442000D01*
Y782986D01*
X421680Y746918D02*
Y782986D01*
D40*
X422788Y691012D02*
Y699124D01*
X416692D02*
X422788D01*
X394564Y691012D02*
Y699124D01*
X400564D01*
X338968Y632592D02*
Y640704D01*
X332872D02*
X338968D01*
X310744Y632592D02*
Y640704D01*
X316744D01*
X257336Y631818D02*
X265448D01*
X257336Y625722D02*
Y631818D01*
Y603594D02*
X265448D01*
X257336D02*
Y609594D01*
X478744Y717515D02*
Y726105D01*
X450296Y717515D02*
Y726105D01*
X461835Y729915D02*
X467205D01*
X567568Y764672D02*
Y772784D01*
X561472D02*
X567568D01*
X539344Y764672D02*
Y772784D01*
X545344D01*
D41*
X609940Y565250D02*
Y590750D01*
X531940D02*
X609940D01*
X531940Y565250D02*
X609940D01*
X531940D02*
Y590750D01*
M02*
