G04*
G04 #@! TF.GenerationSoftware,Altium Limited,CircuitStudio,1.5.2 (1.5.2.30)*
G04*
G04 Layer_Physical_Order=2*
G04 Layer_Color=12500520*
%FSLAX44Y44*%
%MOMM*%
G71*
G01*
G75*
%ADD23C,0.2540*%
%ADD24C,2.1000*%
%ADD25C,4.0000*%
%ADD26C,6.0000*%
%ADD27R,1.5240X1.5240*%
%ADD28C,1.5240*%
%ADD29C,2.5000*%
%ADD30C,2.5400*%
%ADD31R,2.5400X2.5400*%
%ADD32C,1.3000*%
%ADD33C,0.6000*%
%ADD34C,0.4500*%
G36*
X820000Y775753D02*
X818730Y775395D01*
X816407Y779186D01*
X813080Y783081D01*
X809185Y786407D01*
X804818Y789083D01*
X800086Y791043D01*
X795106Y792239D01*
X791270Y792541D01*
Y760000D01*
Y727459D01*
X795106Y727761D01*
X800086Y728957D01*
X804818Y730917D01*
X809185Y733593D01*
X813080Y736920D01*
X816407Y740815D01*
X818730Y744606D01*
X820000Y744248D01*
Y515753D01*
X818730Y515394D01*
X816407Y519186D01*
X813080Y523080D01*
X809185Y526407D01*
X804818Y529083D01*
X800086Y531043D01*
X795106Y532239D01*
X791270Y532541D01*
Y500000D01*
Y467459D01*
X795106Y467761D01*
X800086Y468957D01*
X804818Y470917D01*
X809185Y473593D01*
X813080Y476920D01*
X816407Y480814D01*
X818730Y484605D01*
X820000Y484247D01*
Y460000D01*
X170000D01*
Y484247D01*
X171270Y484605D01*
X173593Y480814D01*
X176919Y476920D01*
X180814Y473593D01*
X185181Y470917D01*
X189913Y468957D01*
X194894Y467761D01*
X198730Y467459D01*
Y500000D01*
Y532541D01*
X194894Y532239D01*
X189913Y531043D01*
X185181Y529083D01*
X180814Y526407D01*
X176919Y523080D01*
X173593Y519186D01*
X171270Y515395D01*
X170000Y515753D01*
Y744247D01*
X171270Y744605D01*
X173593Y740815D01*
X176919Y736920D01*
X180814Y733593D01*
X185181Y730917D01*
X189913Y728957D01*
X194894Y727761D01*
X198730Y727459D01*
Y760000D01*
Y792541D01*
X194894Y792239D01*
X189913Y791043D01*
X185181Y789083D01*
X180814Y786407D01*
X176919Y783081D01*
X173593Y779186D01*
X171270Y775395D01*
X170000Y775753D01*
Y800000D01*
X820000D01*
Y775753D01*
D02*
G37*
%LPC*%
G36*
X496358Y612184D02*
X495466Y612006D01*
X493634Y610782D01*
X492409Y608949D01*
X492232Y608058D01*
X496358D01*
Y612184D01*
D02*
G37*
G36*
X503024Y605518D02*
X498898D01*
Y601392D01*
X499789Y601569D01*
X501622Y602794D01*
X502846Y604626D01*
X503024Y605518D01*
D02*
G37*
G36*
X496358D02*
X492232D01*
X492409Y604626D01*
X493634Y602794D01*
X495466Y601569D01*
X496358Y601392D01*
Y605518D01*
D02*
G37*
G36*
X584216Y613860D02*
X580090D01*
Y609734D01*
X580982Y609911D01*
X582814Y611136D01*
X584039Y612968D01*
X584216Y613860D01*
D02*
G37*
G36*
X577550D02*
X573424D01*
X573601Y612968D01*
X574826Y611136D01*
X576659Y609911D01*
X577550Y609734D01*
Y613860D01*
D02*
G37*
G36*
X498898Y612184D02*
Y608058D01*
X503024D01*
X502846Y608949D01*
X501622Y610782D01*
X499789Y612006D01*
X498898Y612184D01*
D02*
G37*
G36*
X425466Y588460D02*
X421340D01*
Y584334D01*
X422232Y584511D01*
X424064Y585736D01*
X425289Y587568D01*
X425466Y588460D01*
D02*
G37*
G36*
X418800D02*
X414674D01*
X414851Y587568D01*
X416076Y585736D01*
X417909Y584511D01*
X418800Y584334D01*
Y588460D01*
D02*
G37*
G36*
X686236Y584730D02*
X682110D01*
Y580604D01*
X683002Y580782D01*
X684834Y582006D01*
X686059Y583838D01*
X686236Y584730D01*
D02*
G37*
G36*
X679570Y591396D02*
X678678Y591219D01*
X676846Y589994D01*
X675621Y588162D01*
X675444Y587270D01*
X679570D01*
Y591396D01*
D02*
G37*
G36*
X421340Y595126D02*
Y591000D01*
X425466D01*
X425289Y591892D01*
X424064Y593724D01*
X422232Y594949D01*
X421340Y595126D01*
D02*
G37*
G36*
X418800D02*
X417909Y594949D01*
X416076Y593724D01*
X414851Y591892D01*
X414674Y591000D01*
X418800D01*
Y595126D01*
D02*
G37*
G36*
X682110Y591396D02*
Y587270D01*
X686236D01*
X686059Y588162D01*
X684834Y589994D01*
X683002Y591219D01*
X682110Y591396D01*
D02*
G37*
G36*
X437850Y704304D02*
X436582Y704051D01*
X435507Y703333D01*
X434789Y702258D01*
X434536Y700990D01*
X434789Y699722D01*
X435507Y698647D01*
X435536Y698628D01*
Y668969D01*
X411164Y644597D01*
X410662Y643846D01*
X410486Y642960D01*
Y619264D01*
X409916Y618884D01*
X409032Y617561D01*
X408722Y616000D01*
X409032Y614439D01*
X409916Y613116D01*
X411240Y612232D01*
X412800Y611922D01*
X414361Y612232D01*
X415684Y613116D01*
X416568Y614439D01*
X416879Y616000D01*
X416568Y617561D01*
X415684Y618884D01*
X415115Y619264D01*
Y642001D01*
X439487Y666373D01*
X439988Y667124D01*
X440164Y668010D01*
Y698628D01*
X440193Y698647D01*
X440911Y699722D01*
X441164Y700990D01*
X440911Y702258D01*
X440193Y703333D01*
X439118Y704051D01*
X437850Y704304D01*
D02*
G37*
G36*
X346410Y630686D02*
Y626560D01*
X350536D01*
X350359Y627452D01*
X349134Y629284D01*
X347302Y630509D01*
X346410Y630686D01*
D02*
G37*
G36*
X260366Y630370D02*
X256240D01*
Y626244D01*
X257132Y626422D01*
X258964Y627646D01*
X260189Y629478D01*
X260366Y630370D01*
D02*
G37*
G36*
X253700D02*
X249574D01*
X249751Y629478D01*
X250976Y627646D01*
X252808Y626422D01*
X253700Y626244D01*
Y630370D01*
D02*
G37*
G36*
Y637036D02*
X252808Y636859D01*
X250976Y635634D01*
X249751Y633802D01*
X249574Y632910D01*
X253700D01*
Y637036D01*
D02*
G37*
G36*
X561840Y674078D02*
X560279Y673768D01*
X558956Y672884D01*
X558072Y671561D01*
X557762Y670000D01*
X558072Y668439D01*
X558956Y667116D01*
X560279Y666232D01*
X561840Y665921D01*
X563401Y666232D01*
X564724Y667116D01*
X565104Y667685D01*
X593543D01*
X593928Y666415D01*
X593716Y666274D01*
X592832Y664951D01*
X592522Y663390D01*
X592832Y661829D01*
X593716Y660506D01*
X594286Y660126D01*
Y613314D01*
X593716Y612934D01*
X592832Y611611D01*
X592522Y610050D01*
X592832Y608489D01*
X593716Y607166D01*
X595039Y606282D01*
X596600Y605972D01*
X598161Y606282D01*
X599484Y607166D01*
X600368Y608489D01*
X600678Y610050D01*
X600368Y611611D01*
X599484Y612934D01*
X598914Y613314D01*
Y660126D01*
X599484Y660506D01*
X600368Y661829D01*
X600629Y663142D01*
X601351Y663527D01*
X601923Y663644D01*
X604525Y661041D01*
Y643264D01*
X603956Y642884D01*
X603072Y641561D01*
X602762Y640000D01*
X603072Y638439D01*
X603956Y637116D01*
X605279Y636232D01*
X606840Y635922D01*
X608401Y636232D01*
X609724Y637116D01*
X610608Y638439D01*
X610918Y640000D01*
X610608Y641561D01*
X609724Y642884D01*
X609154Y643264D01*
Y662000D01*
X608978Y662886D01*
X608476Y663636D01*
X600476Y671637D01*
X599726Y672138D01*
X598840Y672314D01*
X565104D01*
X564724Y672884D01*
X563401Y673768D01*
X561840Y674078D01*
D02*
G37*
G36*
X729340Y650017D02*
X727382Y649759D01*
X725558Y649004D01*
X723991Y647801D01*
X722789Y646235D01*
X722033Y644410D01*
X721775Y642452D01*
X722033Y640495D01*
X722789Y638670D01*
X723991Y637103D01*
X725558Y635901D01*
X727382Y635145D01*
X729340Y634888D01*
X731298Y635145D01*
X733122Y635901D01*
X734689Y637103D01*
X735891Y638670D01*
X736647Y640495D01*
X736905Y642452D01*
X736647Y644410D01*
X735891Y646235D01*
X734689Y647801D01*
X733122Y649004D01*
X731298Y649759D01*
X729340Y650017D01*
D02*
G37*
G36*
X256240Y637036D02*
Y632910D01*
X260366D01*
X260189Y633802D01*
X258964Y635634D01*
X257132Y636859D01*
X256240Y637036D01*
D02*
G37*
G36*
X580090Y620526D02*
Y616400D01*
X584216D01*
X584039Y617292D01*
X582814Y619124D01*
X580982Y620349D01*
X580090Y620526D01*
D02*
G37*
G36*
X577550D02*
X576659Y620349D01*
X574826Y619124D01*
X573601Y617292D01*
X573424Y616400D01*
X577550D01*
Y620526D01*
D02*
G37*
G36*
X559140Y649763D02*
X557579Y649453D01*
X556256Y648569D01*
X555372Y647246D01*
X555062Y645685D01*
X555372Y644124D01*
X556186Y642907D01*
Y623474D01*
X555616Y623094D01*
X554732Y621771D01*
X554422Y620210D01*
X554732Y618649D01*
X555616Y617326D01*
X556939Y616442D01*
X558500Y616132D01*
X560061Y616442D01*
X561384Y617326D01*
X562268Y618649D01*
X562578Y620210D01*
X562268Y621771D01*
X561384Y623094D01*
X560815Y623474D01*
Y641993D01*
X562024Y642801D01*
X562908Y644124D01*
X563218Y645685D01*
X562908Y647246D01*
X562024Y648569D01*
X560701Y649453D01*
X559140Y649763D01*
D02*
G37*
G36*
X729340Y625017D02*
X727382Y624759D01*
X725558Y624004D01*
X723991Y622801D01*
X722789Y621235D01*
X722033Y619410D01*
X721775Y617452D01*
X721612Y617267D01*
X677604D01*
X677224Y617836D01*
X675901Y618720D01*
X674340Y619031D01*
X672779Y618720D01*
X671456Y617836D01*
X670572Y616513D01*
X670262Y614952D01*
X670572Y613392D01*
X671456Y612068D01*
X672779Y611184D01*
X674340Y610874D01*
X675901Y611184D01*
X677224Y612068D01*
X677604Y612638D01*
X723581D01*
X723991Y612103D01*
X725558Y610901D01*
X727382Y610145D01*
X729340Y609888D01*
X731298Y610145D01*
X733122Y610901D01*
X734689Y612103D01*
X735891Y613670D01*
X736647Y615494D01*
X736905Y617452D01*
X736647Y619410D01*
X735891Y621235D01*
X734689Y622801D01*
X733122Y624004D01*
X731298Y624759D01*
X729340Y625017D01*
D02*
G37*
G36*
X495000Y666712D02*
X490883Y666306D01*
X486925Y665105D01*
X483277Y663155D01*
X480079Y660531D01*
X477455Y657333D01*
X475505Y653685D01*
X474304Y649727D01*
X473899Y645610D01*
X474304Y641493D01*
X475505Y637535D01*
X477455Y633887D01*
X480079Y630689D01*
X483277Y628065D01*
X486925Y626115D01*
X490883Y624914D01*
X495000Y624508D01*
X499117Y624914D01*
X503075Y626115D01*
X506724Y628065D01*
X509921Y630689D01*
X512545Y633887D01*
X514495Y637535D01*
X515696Y641493D01*
X516102Y645610D01*
X515696Y649727D01*
X514495Y653685D01*
X512545Y657333D01*
X509921Y660531D01*
X506724Y663155D01*
X503075Y665105D01*
X499117Y666306D01*
X495000Y666712D01*
D02*
G37*
G36*
X451840Y692078D02*
X450279Y691768D01*
X448956Y690884D01*
X448072Y689561D01*
X448038Y689389D01*
X447832Y689081D01*
X447702Y688886D01*
X447525Y688000D01*
Y637959D01*
X431512Y621945D01*
X430840Y622078D01*
X429279Y621768D01*
X427956Y620884D01*
X427072Y619561D01*
X426762Y618000D01*
X427072Y616439D01*
X427956Y615116D01*
X429279Y614232D01*
X430840Y613922D01*
X432401Y614232D01*
X433724Y615116D01*
X434608Y616439D01*
X434918Y618000D01*
X434785Y618671D01*
X451477Y635363D01*
X451978Y636114D01*
X452154Y637000D01*
Y683984D01*
X453401Y684232D01*
X454724Y685116D01*
X455608Y686439D01*
X455918Y688000D01*
X455608Y689561D01*
X454724Y690884D01*
X453401Y691768D01*
X451840Y692078D01*
D02*
G37*
G36*
X350536Y624020D02*
X346410D01*
Y619894D01*
X347302Y620071D01*
X349134Y621296D01*
X350359Y623128D01*
X350536Y624020D01*
D02*
G37*
G36*
X679570Y584730D02*
X675444D01*
X675621Y583838D01*
X676846Y582006D01*
X678678Y580782D01*
X679570Y580604D01*
Y584730D01*
D02*
G37*
G36*
X385000Y523366D02*
X381476Y522902D01*
X378192Y521542D01*
X375372Y519378D01*
X373208Y516558D01*
X371847Y513274D01*
X371383Y509750D01*
X371847Y506226D01*
X373208Y502942D01*
X375372Y500122D01*
X378192Y497958D01*
X381476Y496597D01*
X385000Y496133D01*
X388524Y496597D01*
X391808Y497958D01*
X394628Y500122D01*
X396792Y502942D01*
X398152Y506226D01*
X398616Y509750D01*
X398152Y513274D01*
X396792Y516558D01*
X394628Y519378D01*
X391808Y521542D01*
X388524Y522902D01*
X385000Y523366D01*
D02*
G37*
G36*
X254970Y609048D02*
X253409Y608738D01*
X252086Y607854D01*
X251202Y606531D01*
X250892Y604970D01*
X251202Y603409D01*
X251546Y602895D01*
X251562Y602814D01*
X252064Y602063D01*
X252656Y601471D01*
Y520982D01*
X252832Y520096D01*
X253333Y519346D01*
X264566Y508113D01*
X265317Y507612D01*
X266202Y507435D01*
X271688D01*
X271847Y506226D01*
X273208Y502942D01*
X275372Y500122D01*
X278192Y497958D01*
X281476Y496597D01*
X285000Y496133D01*
X288524Y496597D01*
X291808Y497958D01*
X294628Y500122D01*
X296792Y502942D01*
X298152Y506226D01*
X298616Y509750D01*
X298152Y513274D01*
X296792Y516558D01*
X294628Y519378D01*
X291808Y521542D01*
X288524Y522902D01*
X285000Y523366D01*
X281476Y522902D01*
X278192Y521542D01*
X275372Y519378D01*
X273208Y516558D01*
X271847Y513274D01*
X271688Y512064D01*
X267161D01*
X257285Y521941D01*
Y601706D01*
X257854Y602086D01*
X258738Y603409D01*
X259048Y604970D01*
X258738Y606531D01*
X257854Y607854D01*
X256531Y608738D01*
X254970Y609048D01*
D02*
G37*
G36*
X669987Y508480D02*
X656270D01*
Y494762D01*
X657948Y494927D01*
X660783Y495788D01*
X663396Y497184D01*
X665686Y499063D01*
X667566Y501354D01*
X668962Y503966D01*
X669822Y506801D01*
X669987Y508480D01*
D02*
G37*
G36*
X605000Y523366D02*
X601476Y522902D01*
X598192Y521542D01*
X595372Y519378D01*
X593208Y516558D01*
X591847Y513274D01*
X591383Y509750D01*
X591847Y506226D01*
X593208Y502942D01*
X595372Y500122D01*
X598192Y497958D01*
X601476Y496597D01*
X605000Y496133D01*
X608524Y496597D01*
X611808Y497958D01*
X614628Y500122D01*
X616792Y502942D01*
X618152Y506226D01*
X618616Y509750D01*
X618152Y513274D01*
X616792Y516558D01*
X614628Y519378D01*
X611808Y521542D01*
X608524Y522902D01*
X605000Y523366D01*
D02*
G37*
G36*
X788730Y532541D02*
X784894Y532239D01*
X779913Y531043D01*
X775181Y529083D01*
X770814Y526407D01*
X766919Y523080D01*
X763593Y519186D01*
X760917Y514818D01*
X758957Y510086D01*
X757761Y505106D01*
X757459Y501270D01*
X788730D01*
Y532541D01*
D02*
G37*
G36*
X468750Y542531D02*
X467189Y542220D01*
X465866Y541336D01*
X464982Y540013D01*
X464672Y538452D01*
X464982Y536892D01*
X465866Y535569D01*
X466435Y535188D01*
Y523407D01*
X465624Y523300D01*
X462291Y521919D01*
X459429Y519723D01*
X457233Y516861D01*
X455853Y513529D01*
X455382Y509952D01*
X455853Y506376D01*
X457233Y503043D01*
X459429Y500181D01*
X462291Y497985D01*
X465624Y496605D01*
X469200Y496134D01*
X472776Y496605D01*
X476109Y497985D01*
X478971Y500181D01*
X481167Y503043D01*
X482547Y506376D01*
X483018Y509952D01*
X482547Y513529D01*
X481167Y516861D01*
X478971Y519723D01*
X476109Y521919D01*
X472776Y523300D01*
X471064Y523525D01*
Y535188D01*
X471634Y535569D01*
X472518Y536892D01*
X472828Y538452D01*
X472518Y540013D01*
X471634Y541336D01*
X470311Y542220D01*
X468750Y542531D01*
D02*
G37*
G36*
X705000Y523366D02*
X701476Y522902D01*
X698192Y521542D01*
X695371Y519378D01*
X693208Y516558D01*
X691847Y513274D01*
X691383Y509750D01*
X691847Y506226D01*
X693208Y502942D01*
X695371Y500122D01*
X698192Y497958D01*
X701476Y496597D01*
X705000Y496133D01*
X708524Y496597D01*
X711808Y497958D01*
X714628Y500122D01*
X716792Y502942D01*
X718152Y506226D01*
X718616Y509750D01*
X718152Y513274D01*
X716792Y516558D01*
X714628Y519378D01*
X711808Y521542D01*
X708524Y522902D01*
X705000Y523366D01*
D02*
G37*
G36*
X518730Y508682D02*
X504760D01*
Y494712D01*
X518730D01*
Y508682D01*
D02*
G37*
G36*
X232540Y498730D02*
X201270D01*
Y467459D01*
X205106Y467761D01*
X210086Y468957D01*
X214818Y470917D01*
X219186Y473593D01*
X223080Y476920D01*
X226407Y480814D01*
X229083Y485181D01*
X231043Y489913D01*
X232239Y494894D01*
X232540Y498730D01*
D02*
G37*
G36*
X788730D02*
X757459D01*
X757761Y494894D01*
X758957Y489913D01*
X760917Y485181D01*
X763593Y480814D01*
X766919Y476920D01*
X770814Y473593D01*
X775181Y470917D01*
X779913Y468957D01*
X784894Y467761D01*
X788730Y467459D01*
Y498730D01*
D02*
G37*
G36*
X535240Y508682D02*
X521270D01*
Y494712D01*
X535240D01*
Y508682D01*
D02*
G37*
G36*
X653730Y508480D02*
X640012D01*
X640178Y506801D01*
X641038Y503966D01*
X642434Y501354D01*
X644314Y499063D01*
X646604Y497184D01*
X649216Y495788D01*
X652051Y494927D01*
X653730Y494762D01*
Y508480D01*
D02*
G37*
G36*
X349988D02*
X336270D01*
Y494762D01*
X337948Y494927D01*
X340783Y495788D01*
X343396Y497184D01*
X345686Y499063D01*
X347566Y501354D01*
X348962Y503966D01*
X349822Y506801D01*
X349988Y508480D01*
D02*
G37*
G36*
X333730D02*
X320012D01*
X320177Y506801D01*
X321037Y503966D01*
X322434Y501354D01*
X324314Y499063D01*
X326604Y497184D01*
X329216Y495788D01*
X332052Y494927D01*
X333730Y494762D01*
Y508480D01*
D02*
G37*
G36*
X242270Y621748D02*
X240709Y621438D01*
X239386Y620554D01*
X238502Y619231D01*
X238192Y617670D01*
X238502Y616109D01*
X239386Y614786D01*
X239956Y614406D01*
Y572674D01*
X239386Y572294D01*
X238502Y570971D01*
X238192Y569410D01*
X238502Y567849D01*
X239386Y566526D01*
X240709Y565642D01*
X242270Y565332D01*
X243831Y565642D01*
X245154Y566526D01*
X246038Y567849D01*
X246348Y569410D01*
X246038Y570971D01*
X245154Y572294D01*
X244585Y572674D01*
Y614406D01*
X245154Y614786D01*
X246038Y616109D01*
X246348Y617670D01*
X246038Y619231D01*
X245154Y620554D01*
X243831Y621438D01*
X242270Y621748D01*
D02*
G37*
G36*
X306430Y568800D02*
X302304D01*
X302482Y567909D01*
X303706Y566076D01*
X305539Y564851D01*
X306430Y564674D01*
Y568800D01*
D02*
G37*
G36*
X384510Y666198D02*
X382949Y665888D01*
X381626Y665004D01*
X380742Y663681D01*
X380432Y662120D01*
X380742Y660559D01*
X381626Y659236D01*
X382949Y658352D01*
X383525Y658238D01*
Y547264D01*
X382955Y546883D01*
X382071Y545560D01*
X381761Y543999D01*
X382071Y542439D01*
X382955Y541115D01*
X384278Y540231D01*
X385839Y539921D01*
X387400Y540231D01*
X388723Y541115D01*
X389607Y542439D01*
X389918Y543999D01*
X389607Y545560D01*
X388723Y546883D01*
X388154Y547264D01*
Y660373D01*
X388278Y660559D01*
X388588Y662120D01*
X388278Y663681D01*
X387394Y665004D01*
X386071Y665888D01*
X384510Y666198D01*
D02*
G37*
G36*
X570340Y586444D02*
X568090Y586148D01*
X565993Y585279D01*
X564192Y583898D01*
X562810Y582097D01*
X561942Y580000D01*
X561646Y577750D01*
X561942Y575500D01*
X562810Y573403D01*
X562906Y573279D01*
X541623Y551997D01*
X541122Y551246D01*
X540946Y550360D01*
Y535844D01*
X540376Y535464D01*
X539492Y534141D01*
X539182Y532580D01*
X539492Y531019D01*
X540376Y529696D01*
X541699Y528812D01*
X543260Y528502D01*
X544821Y528812D01*
X546144Y529696D01*
X547028Y531019D01*
X547338Y532580D01*
X547028Y534141D01*
X546144Y535464D01*
X545574Y535844D01*
Y549401D01*
X566276Y570103D01*
X568090Y569352D01*
X570340Y569055D01*
X572590Y569352D01*
X574687Y570220D01*
X576488Y571602D01*
X577869Y573403D01*
X578738Y575500D01*
X579034Y577750D01*
X578738Y580000D01*
X577869Y582097D01*
X576488Y583898D01*
X574687Y585279D01*
X572590Y586148D01*
X570340Y586444D01*
D02*
G37*
G36*
X306430Y575466D02*
X305539Y575289D01*
X303706Y574064D01*
X302482Y572232D01*
X302304Y571340D01*
X306430D01*
Y575466D01*
D02*
G37*
G36*
X553560Y586370D02*
X536320D01*
Y569130D01*
X553560D01*
Y586370D01*
D02*
G37*
G36*
X595740Y586444D02*
X593490Y586148D01*
X591393Y585279D01*
X589592Y583898D01*
X588210Y582097D01*
X587342Y580000D01*
X587046Y577750D01*
X587342Y575500D01*
X588210Y573403D01*
X589592Y571602D01*
X591393Y570220D01*
X593490Y569352D01*
X595740Y569055D01*
X597990Y569352D01*
X600087Y570220D01*
X601888Y571602D01*
X603270Y573403D01*
X604138Y575500D01*
X604434Y577750D01*
X604138Y580000D01*
X603270Y582097D01*
X601888Y583898D01*
X600087Y585279D01*
X597990Y586148D01*
X595740Y586444D01*
D02*
G37*
G36*
X336270Y524738D02*
Y511020D01*
X349988D01*
X349822Y512698D01*
X348962Y515533D01*
X347566Y518146D01*
X345686Y520436D01*
X343396Y522316D01*
X340783Y523712D01*
X337948Y524572D01*
X336270Y524738D01*
D02*
G37*
G36*
X333730D02*
X332052Y524572D01*
X329216Y523712D01*
X326604Y522316D01*
X324314Y520436D01*
X322434Y518146D01*
X321037Y515533D01*
X320177Y512698D01*
X320012Y511020D01*
X333730D01*
Y524738D01*
D02*
G37*
G36*
X201270Y532541D02*
Y501270D01*
X232540D01*
X232239Y505106D01*
X231043Y510086D01*
X229083Y514818D01*
X226407Y519186D01*
X223080Y523080D01*
X219186Y526407D01*
X214818Y529083D01*
X210086Y531043D01*
X205106Y532239D01*
X201270Y532541D01*
D02*
G37*
G36*
X653730Y524738D02*
X652051Y524572D01*
X649216Y523712D01*
X646604Y522316D01*
X644314Y520436D01*
X642434Y518146D01*
X641038Y515533D01*
X640178Y512698D01*
X640012Y511020D01*
X653730D01*
Y524738D01*
D02*
G37*
G36*
X535240Y525192D02*
X521270D01*
Y511222D01*
X535240D01*
Y525192D01*
D02*
G37*
G36*
X518730D02*
X504760D01*
Y511222D01*
X518730D01*
Y525192D01*
D02*
G37*
G36*
X656270Y524738D02*
Y511020D01*
X669987D01*
X669822Y512698D01*
X668962Y515533D01*
X667566Y518146D01*
X665686Y520436D01*
X663396Y522316D01*
X660783Y523712D01*
X657948Y524572D01*
X656270Y524738D01*
D02*
G37*
G36*
X552570Y752396D02*
X551678Y752219D01*
X549846Y750994D01*
X548621Y749162D01*
X548444Y748270D01*
X552570D01*
Y752396D01*
D02*
G37*
G36*
X562996Y771024D02*
X561435Y770714D01*
X560112Y769830D01*
X559228Y768507D01*
X558918Y766946D01*
X559228Y765385D01*
X560112Y764062D01*
X560682Y763682D01*
Y747512D01*
X559535Y747399D01*
X559463Y747392D01*
X559419Y747388D01*
X559412Y747387D01*
X559327Y747813D01*
X559327Y747813D01*
X559059Y749162D01*
X557834Y750994D01*
X556002Y752219D01*
X555110Y752396D01*
Y747000D01*
Y741604D01*
X556002Y741781D01*
X557834Y743006D01*
X559059Y744838D01*
X559327Y746187D01*
X559327D01*
X559412Y746613D01*
X559419Y746612D01*
X559463Y746608D01*
X559535Y746601D01*
X560682Y746488D01*
Y705213D01*
X559426Y704374D01*
X558542Y703051D01*
X558232Y701490D01*
X558542Y699929D01*
X559426Y698606D01*
X560749Y697722D01*
X562310Y697412D01*
X563871Y697722D01*
X565194Y698606D01*
X566078Y699929D01*
X566388Y701490D01*
X566078Y703051D01*
X565311Y704199D01*
Y763682D01*
X565880Y764062D01*
X566764Y765385D01*
X567074Y766946D01*
X566764Y768507D01*
X565880Y769830D01*
X564557Y770714D01*
X562996Y771024D01*
D02*
G37*
G36*
X378340Y751078D02*
X376779Y750768D01*
X375456Y749884D01*
X374572Y748561D01*
X374262Y747000D01*
X374395Y746328D01*
X328889Y700822D01*
X328424Y700127D01*
X328330Y700109D01*
X327154Y700510D01*
Y719671D01*
X327101Y719941D01*
X327358Y721232D01*
X327047Y722793D01*
X326163Y724116D01*
X324840Y725000D01*
X323279Y725310D01*
X321718Y725000D01*
X320395Y724116D01*
X319511Y722793D01*
X319201Y721232D01*
X319511Y719671D01*
X320395Y718348D01*
X321718Y717464D01*
X322525Y717304D01*
Y633950D01*
X321956Y633569D01*
X321072Y632246D01*
X320762Y630685D01*
X321072Y629125D01*
X321956Y627802D01*
X323279Y626917D01*
X324840Y626607D01*
X326401Y626917D01*
X326941Y627279D01*
X328211Y626600D01*
Y614644D01*
X315203Y601636D01*
X314702Y600886D01*
X314526Y600000D01*
Y593264D01*
X313956Y592884D01*
X313072Y591561D01*
X312974Y591071D01*
X311705Y591196D01*
Y632357D01*
X312974Y633036D01*
X313099Y632952D01*
X314660Y632642D01*
X316221Y632952D01*
X317544Y633836D01*
X318428Y635159D01*
X318738Y636720D01*
X318428Y638281D01*
X317544Y639604D01*
X316975Y639984D01*
Y713466D01*
X317544Y713846D01*
X318428Y715169D01*
X318738Y716730D01*
X318428Y718291D01*
X317544Y719614D01*
X316221Y720498D01*
X314660Y720808D01*
X313099Y720498D01*
X311776Y719614D01*
X310892Y718291D01*
X310582Y716730D01*
X310892Y715169D01*
X311776Y713846D01*
X312346Y713466D01*
Y640630D01*
X311207Y639666D01*
X310353Y639760D01*
X300266Y649847D01*
X300608Y650359D01*
X300918Y651920D01*
X300608Y653481D01*
X299724Y654804D01*
X298401Y655688D01*
X296840Y655998D01*
X295279Y655688D01*
X293956Y654804D01*
X293072Y653481D01*
X292762Y651920D01*
X293072Y650359D01*
X293956Y649036D01*
X295279Y648152D01*
X295448Y648118D01*
X307076Y636491D01*
Y582312D01*
X307252Y581426D01*
X307754Y580676D01*
X312750Y575679D01*
X312630Y574752D01*
X311394Y574265D01*
X309862Y575289D01*
X308970Y575466D01*
Y570070D01*
Y564674D01*
X309862Y564851D01*
X311665Y566057D01*
X311848Y566023D01*
X312935Y565648D01*
Y483717D01*
X312366Y483336D01*
X311482Y482013D01*
X311171Y480452D01*
X311482Y478892D01*
X312366Y477569D01*
X313689Y476684D01*
X315250Y476374D01*
X316811Y476684D01*
X318134Y477569D01*
X319018Y478892D01*
X319328Y480452D01*
X319018Y482013D01*
X318134Y483336D01*
X317564Y483717D01*
Y576452D01*
X317388Y577338D01*
X317222Y577587D01*
X316886Y578089D01*
X311705Y583271D01*
Y588804D01*
X312974Y588929D01*
X313072Y588439D01*
X313956Y587116D01*
X315279Y586232D01*
X316840Y585922D01*
X318401Y586232D01*
X319724Y587116D01*
X320608Y588439D01*
X320918Y590000D01*
X320608Y591561D01*
X319724Y592884D01*
X319154Y593264D01*
Y599041D01*
X332162Y612049D01*
X332664Y612800D01*
X332840Y613685D01*
Y698227D01*
X377668Y743055D01*
X378340Y742922D01*
X379901Y743232D01*
X381224Y744116D01*
X382108Y745439D01*
X382418Y747000D01*
X382108Y748561D01*
X381224Y749884D01*
X379901Y750768D01*
X378340Y751078D01*
D02*
G37*
G36*
X788730Y792541D02*
X784894Y792239D01*
X779913Y791043D01*
X775181Y789083D01*
X770814Y786407D01*
X766919Y783081D01*
X763593Y779186D01*
X760917Y774819D01*
X758957Y770087D01*
X757761Y765106D01*
X757459Y761270D01*
X788730D01*
Y792541D01*
D02*
G37*
G36*
X485156Y782770D02*
X481030D01*
Y778644D01*
X481922Y778821D01*
X483754Y780046D01*
X484979Y781878D01*
X485156Y782770D01*
D02*
G37*
G36*
X478490D02*
X474364D01*
X474542Y781878D01*
X475766Y780046D01*
X477598Y778821D01*
X478490Y778644D01*
Y782770D01*
D02*
G37*
G36*
X201270Y792541D02*
Y761270D01*
X232540D01*
X232239Y765106D01*
X231043Y770087D01*
X229083Y774819D01*
X226407Y779186D01*
X223080Y783081D01*
X219186Y786407D01*
X214818Y789083D01*
X210086Y791043D01*
X205106Y792239D01*
X201270Y792541D01*
D02*
G37*
G36*
X443246Y739590D02*
X439120D01*
Y735464D01*
X440012Y735641D01*
X441844Y736866D01*
X443069Y738698D01*
X443246Y739590D01*
D02*
G37*
G36*
X436580D02*
X432454D01*
X432631Y738698D01*
X433856Y736866D01*
X435689Y735641D01*
X436580Y735464D01*
Y739590D01*
D02*
G37*
G36*
X341840Y759353D02*
X338707Y758941D01*
X335788Y757732D01*
X333281Y755808D01*
X331358Y753302D01*
X330149Y750383D01*
X329736Y747250D01*
X330149Y744117D01*
X331358Y741198D01*
X333281Y738691D01*
X335788Y736768D01*
X338707Y735559D01*
X341840Y735146D01*
X344973Y735559D01*
X347892Y736768D01*
X350398Y738691D01*
X352322Y741198D01*
X353531Y744117D01*
X353943Y747250D01*
X353531Y750383D01*
X352322Y753302D01*
X350398Y755808D01*
X347892Y757732D01*
X344973Y758941D01*
X341840Y759353D01*
D02*
G37*
G36*
X552570Y745730D02*
X548444D01*
X548621Y744838D01*
X549846Y743006D01*
X551678Y741781D01*
X552570Y741604D01*
Y745730D01*
D02*
G37*
G36*
X439120Y746256D02*
Y742130D01*
X443246D01*
X443069Y743022D01*
X441844Y744854D01*
X440012Y746079D01*
X439120Y746256D01*
D02*
G37*
G36*
X436580D02*
X435689Y746079D01*
X433856Y744854D01*
X432631Y743022D01*
X432454Y742130D01*
X436580D01*
Y746256D01*
D02*
G37*
G36*
X233656Y746030D02*
X229530D01*
Y741904D01*
X230422Y742081D01*
X232254Y743306D01*
X233479Y745138D01*
X233656Y746030D01*
D02*
G37*
G36*
X554690Y793246D02*
Y789120D01*
X558816D01*
X558639Y790012D01*
X557414Y791844D01*
X555582Y793069D01*
X554690Y793246D01*
D02*
G37*
G36*
X552150D02*
X551259Y793069D01*
X549426Y791844D01*
X548201Y790012D01*
X548024Y789120D01*
X552150D01*
Y793246D01*
D02*
G37*
G36*
X481030Y789436D02*
Y785310D01*
X485156D01*
X484979Y786202D01*
X483754Y788034D01*
X481922Y789259D01*
X481030Y789436D01*
D02*
G37*
G36*
X583900Y793246D02*
X583008Y793069D01*
X581176Y791844D01*
X579952Y790012D01*
X579774Y789120D01*
X583900D01*
Y793246D01*
D02*
G37*
G36*
X455630Y794516D02*
Y790390D01*
X459756D01*
X459579Y791282D01*
X458354Y793114D01*
X456522Y794339D01*
X455630Y794516D01*
D02*
G37*
G36*
X453090D02*
X452198Y794339D01*
X450366Y793114D01*
X449142Y791282D01*
X448964Y790390D01*
X453090D01*
Y794516D01*
D02*
G37*
G36*
X586440Y793246D02*
Y789120D01*
X590566D01*
X590389Y790012D01*
X589164Y791844D01*
X587332Y793069D01*
X586440Y793246D01*
D02*
G37*
G36*
X583900Y786580D02*
X579774D01*
X579952Y785688D01*
X581176Y783856D01*
X583008Y782632D01*
X583900Y782454D01*
Y786580D01*
D02*
G37*
G36*
X558816D02*
X554690D01*
Y782454D01*
X555582Y782632D01*
X557414Y783856D01*
X558639Y785688D01*
X558816Y786580D01*
D02*
G37*
G36*
X552150D02*
X548024D01*
X548201Y785688D01*
X549426Y783856D01*
X551259Y782632D01*
X552150Y782454D01*
Y786580D01*
D02*
G37*
G36*
X590566D02*
X586440D01*
Y782454D01*
X587332Y782632D01*
X589164Y783856D01*
X590389Y785688D01*
X590566Y786580D01*
D02*
G37*
G36*
X478490Y789436D02*
X477598Y789259D01*
X475766Y788034D01*
X474542Y786202D01*
X474364Y785310D01*
X478490D01*
Y789436D01*
D02*
G37*
G36*
X459756Y787850D02*
X455630D01*
Y783724D01*
X456522Y783902D01*
X458354Y785126D01*
X459579Y786958D01*
X459756Y787850D01*
D02*
G37*
G36*
X453090D02*
X448964D01*
X449142Y786958D01*
X450366Y785126D01*
X452198Y783902D01*
X453090Y783724D01*
Y787850D01*
D02*
G37*
G36*
X273260Y759353D02*
X270127Y758941D01*
X267208Y757732D01*
X264701Y755808D01*
X262778Y753302D01*
X261569Y750383D01*
X261157Y747250D01*
X261569Y744117D01*
X262778Y741198D01*
X264701Y738691D01*
X267208Y736768D01*
X270127Y735559D01*
X273260Y735146D01*
X276393Y735559D01*
X279312Y736768D01*
X281819Y738691D01*
X283742Y741198D01*
X284951Y744117D01*
X285364Y747250D01*
X284951Y750383D01*
X283742Y753302D01*
X281819Y755808D01*
X279312Y757732D01*
X276393Y758941D01*
X273260Y759353D01*
D02*
G37*
G36*
X344530Y695456D02*
X343639Y695279D01*
X341806Y694054D01*
X340582Y692222D01*
X340404Y691330D01*
X344530D01*
Y695456D01*
D02*
G37*
G36*
X291656Y693030D02*
X287530D01*
Y688904D01*
X288422Y689081D01*
X290254Y690306D01*
X291479Y692138D01*
X291656Y693030D01*
D02*
G37*
G36*
X284990D02*
X280864D01*
X281042Y692138D01*
X282266Y690306D01*
X284098Y689081D01*
X284990Y688904D01*
Y693030D01*
D02*
G37*
G36*
X347070Y695456D02*
Y691330D01*
X351196D01*
X351019Y692222D01*
X349794Y694054D01*
X347962Y695279D01*
X347070Y695456D01*
D02*
G37*
G36*
X284990Y699696D02*
X284098Y699519D01*
X282266Y698294D01*
X281042Y696462D01*
X280864Y695570D01*
X284990D01*
Y699696D01*
D02*
G37*
G36*
X657876Y698950D02*
X653750D01*
Y694824D01*
X654642Y695002D01*
X656474Y696226D01*
X657699Y698058D01*
X657876Y698950D01*
D02*
G37*
G36*
X651210D02*
X647084D01*
X647262Y698058D01*
X648486Y696226D01*
X650319Y695002D01*
X651210Y694824D01*
Y698950D01*
D02*
G37*
G36*
X548840Y704078D02*
X547279Y703768D01*
X545956Y702884D01*
X545072Y701561D01*
X544762Y700000D01*
X545072Y698439D01*
X545956Y697116D01*
X546526Y696736D01*
Y610239D01*
X546072Y609561D01*
X545762Y608000D01*
X546072Y606439D01*
X546956Y605116D01*
X548279Y604232D01*
X549840Y603922D01*
X551401Y604232D01*
X552724Y605116D01*
X553608Y606439D01*
X553918Y608000D01*
X553608Y609561D01*
X552724Y610884D01*
X551401Y611768D01*
X551155Y611817D01*
Y681358D01*
X552425Y681949D01*
X553798Y681031D01*
X554690Y680854D01*
Y686250D01*
Y691646D01*
X553798Y691469D01*
X552425Y690551D01*
X551155Y691142D01*
Y696736D01*
X551724Y697116D01*
X552608Y698439D01*
X552918Y700000D01*
X552608Y701561D01*
X551724Y702884D01*
X550401Y703768D01*
X548840Y704078D01*
D02*
G37*
G36*
X661840Y686531D02*
X660279Y686220D01*
X658956Y685336D01*
X658072Y684013D01*
X657762Y682452D01*
X658072Y680892D01*
X658956Y679568D01*
X659070Y679492D01*
X659176Y678061D01*
X610012Y628897D01*
X609340Y629031D01*
X607779Y628720D01*
X606456Y627836D01*
X605572Y626513D01*
X605262Y624952D01*
X605572Y623392D01*
X606456Y622068D01*
X607779Y621184D01*
X609340Y620874D01*
X610901Y621184D01*
X612224Y622068D01*
X613108Y623392D01*
X613418Y624952D01*
X613285Y625624D01*
X663476Y675816D01*
X663978Y676567D01*
X664154Y677452D01*
Y679188D01*
X664724Y679568D01*
X665104Y680138D01*
X713381D01*
X722641Y670878D01*
X722033Y669410D01*
X721775Y667452D01*
X722033Y665495D01*
X722789Y663670D01*
X723991Y662103D01*
X725558Y660901D01*
X727382Y660145D01*
X729340Y659888D01*
X731298Y660145D01*
X733122Y660901D01*
X734689Y662103D01*
X735891Y663670D01*
X736647Y665495D01*
X736905Y667452D01*
X736647Y669410D01*
X735891Y671235D01*
X734689Y672801D01*
X733122Y674004D01*
X731298Y674759D01*
X729340Y675017D01*
X727382Y674759D01*
X725914Y674151D01*
X715976Y684089D01*
X715226Y684591D01*
X714340Y684767D01*
X665104D01*
X664724Y685336D01*
X663401Y686220D01*
X661840Y686531D01*
D02*
G37*
G36*
X346410Y654768D02*
X344849Y654458D01*
X343526Y653574D01*
X342642Y652251D01*
X342332Y650690D01*
X342465Y650018D01*
X338233Y645787D01*
X337732Y645036D01*
X337556Y644150D01*
Y534447D01*
X337176Y534194D01*
X336292Y532871D01*
X335982Y531310D01*
X336292Y529749D01*
X337176Y528426D01*
X338499Y527542D01*
X340060Y527232D01*
X341621Y527542D01*
X342944Y528426D01*
X343828Y529749D01*
X344138Y531310D01*
X343828Y532871D01*
X342944Y534194D01*
X342185Y534701D01*
Y619191D01*
X343455Y619977D01*
X343870Y619894D01*
Y625290D01*
Y630686D01*
X343455Y630603D01*
X342185Y631389D01*
Y643191D01*
X345738Y646745D01*
X346410Y646612D01*
X347971Y646922D01*
X349294Y647806D01*
X350178Y649129D01*
X350488Y650690D01*
X350178Y652251D01*
X349294Y653574D01*
X347971Y654458D01*
X346410Y654768D01*
D02*
G37*
G36*
X561356Y684980D02*
X557230D01*
Y680854D01*
X558122Y681031D01*
X559954Y682256D01*
X561179Y684088D01*
X561356Y684980D01*
D02*
G37*
G36*
X557230Y691646D02*
Y687520D01*
X561356D01*
X561179Y688412D01*
X559954Y690244D01*
X558122Y691469D01*
X557230Y691646D01*
D02*
G37*
G36*
X351196Y688790D02*
X347070D01*
Y684664D01*
X347962Y684842D01*
X349794Y686066D01*
X351019Y687898D01*
X351196Y688790D01*
D02*
G37*
G36*
X344530D02*
X340404D01*
X340582Y687898D01*
X341806Y686066D01*
X343639Y684842D01*
X344530Y684664D01*
Y688790D01*
D02*
G37*
G36*
X409910Y724618D02*
X408349Y724308D01*
X407026Y723424D01*
X406142Y722101D01*
X405832Y720540D01*
X405965Y719868D01*
X393033Y706937D01*
X392532Y706186D01*
X392356Y705300D01*
Y653954D01*
X391786Y653574D01*
X390902Y652251D01*
X390592Y650690D01*
X390902Y649129D01*
X391786Y647806D01*
X393109Y646922D01*
X394670Y646612D01*
X396231Y646922D01*
X397554Y647806D01*
X398438Y649129D01*
X398748Y650690D01*
X398438Y652251D01*
X397554Y653574D01*
X396984Y653954D01*
Y704341D01*
X409238Y716595D01*
X409910Y716462D01*
X411471Y716772D01*
X412794Y717656D01*
X413678Y718979D01*
X413988Y720540D01*
X413678Y722101D01*
X412794Y723424D01*
X411471Y724308D01*
X409910Y724618D01*
D02*
G37*
G36*
X469916Y718750D02*
X465790D01*
Y714624D01*
X466682Y714801D01*
X468514Y716026D01*
X469739Y717859D01*
X469916Y718750D01*
D02*
G37*
G36*
X463250D02*
X459124D01*
X459301Y717859D01*
X460526Y716026D01*
X462359Y714801D01*
X463250Y714624D01*
Y718750D01*
D02*
G37*
G36*
Y725416D02*
X462359Y725239D01*
X460526Y724014D01*
X459301Y722182D01*
X459124Y721290D01*
X463250D01*
Y725416D01*
D02*
G37*
G36*
X788730Y758730D02*
X757459D01*
X757761Y754894D01*
X758957Y749914D01*
X760917Y745182D01*
X763593Y740815D01*
X766919Y736920D01*
X770814Y733593D01*
X775181Y730917D01*
X779913Y728957D01*
X784894Y727761D01*
X788730Y727459D01*
Y758730D01*
D02*
G37*
G36*
X232540Y758730D02*
X201270D01*
Y727459D01*
X205106Y727761D01*
X210086Y728957D01*
X214818Y730917D01*
X219186Y733593D01*
X223080Y736920D01*
X226407Y740815D01*
X226990Y741766D01*
Y747300D01*
X228260D01*
Y748570D01*
X233656D01*
X233479Y749462D01*
X232254Y751294D01*
X231496Y751801D01*
X232239Y754894D01*
X232540Y758730D01*
D02*
G37*
G36*
X465790Y725416D02*
Y721290D01*
X469916D01*
X469739Y722182D01*
X468514Y724014D01*
X466682Y725239D01*
X465790Y725416D01*
D02*
G37*
G36*
X508016Y701490D02*
X503890D01*
Y697364D01*
X504782Y697542D01*
X506614Y698766D01*
X507839Y700598D01*
X508016Y701490D01*
D02*
G37*
G36*
X501350D02*
X497224D01*
X497402Y700598D01*
X498626Y698766D01*
X500458Y697542D01*
X501350Y697364D01*
Y701490D01*
D02*
G37*
G36*
X287530Y699696D02*
Y695570D01*
X291656D01*
X291479Y696462D01*
X290254Y698294D01*
X288422Y699519D01*
X287530Y699696D01*
D02*
G37*
G36*
X651210Y705616D02*
X650319Y705439D01*
X648486Y704214D01*
X647262Y702382D01*
X647084Y701490D01*
X651210D01*
Y705616D01*
D02*
G37*
G36*
X503890Y708156D02*
Y704030D01*
X508016D01*
X507839Y704922D01*
X506614Y706754D01*
X504782Y707979D01*
X503890Y708156D01*
D02*
G37*
G36*
X501350D02*
X500458Y707979D01*
X498626Y706754D01*
X497402Y704922D01*
X497224Y704030D01*
X501350D01*
Y708156D01*
D02*
G37*
G36*
X653750Y705616D02*
Y701490D01*
X657876D01*
X657699Y702382D01*
X656474Y704214D01*
X654642Y705439D01*
X653750Y705616D01*
D02*
G37*
%LPD*%
D23*
X266202Y509750D02*
X285000D01*
X254970Y520982D02*
X266202Y509750D01*
X254970Y520982D02*
Y602430D01*
X468750Y510402D02*
X469200Y509952D01*
X468750Y510402D02*
Y538452D01*
X315250Y480452D02*
Y576452D01*
X309390Y582312D02*
X315250Y576452D01*
X309390Y582312D02*
Y637450D01*
X296840Y650000D02*
X309390Y637450D01*
X296840Y650000D02*
Y651920D01*
X449840Y637000D02*
Y688000D01*
X451840D01*
X430840Y618000D02*
X449840Y637000D01*
X437850Y668010D02*
Y700990D01*
X412800Y642960D02*
X437850Y668010D01*
X412800Y616000D02*
Y642960D01*
X606840Y640000D02*
Y662000D01*
X598840Y670000D02*
X606840Y662000D01*
X561840Y670000D02*
X598840D01*
X596600Y610050D02*
Y663390D01*
X394670Y650690D02*
Y705300D01*
X409910Y720540D01*
X242270Y569410D02*
Y617670D01*
X314660Y636720D02*
Y716730D01*
X339870Y644150D02*
X346410Y650690D01*
X339870Y531500D02*
X340060Y531310D01*
X339870Y531500D02*
Y644150D01*
X543260Y532580D02*
Y550360D01*
X568660Y575760D01*
Y578300D01*
X558500Y645045D02*
X559140Y645685D01*
X558500Y620210D02*
Y645045D01*
X253700Y603700D02*
X254970Y604970D01*
X253700Y603700D02*
X254970Y602430D01*
X562996Y702176D02*
Y766946D01*
X562310Y701490D02*
X562996Y702176D01*
X548840Y608000D02*
X549840D01*
X548840D02*
Y700000D01*
X384510Y662120D02*
X385839Y660791D01*
Y543999D02*
Y660791D01*
X316840Y590000D02*
Y600000D01*
X330526Y613685D01*
Y699185D01*
X378340Y747000D01*
X323279Y721232D02*
X324840Y719671D01*
Y630685D02*
Y719671D01*
X609340Y624952D02*
X661840Y677452D01*
Y682452D01*
X674340Y614952D02*
X726840D01*
X729340Y617452D01*
X714340Y682452D02*
X729340Y667452D01*
X661840Y682452D02*
X714340D01*
X160000Y452700D02*
G03*
X168980Y431020I30661J0D01*
G01*
X351020Y248980D02*
G03*
X372700Y240000I21680J21680D01*
G01*
X617300D02*
G03*
X638980Y248980I0J30661D01*
G01*
X821020Y431020D02*
G03*
X830000Y452700I-21680J21680D01*
G01*
Y778300D02*
G03*
X801580Y808300I-29210J790D01*
G01*
X188420D02*
G03*
X160000Y778300I790J-29210D01*
G01*
Y452700D02*
Y458300D01*
X168980Y431020D02*
X351020Y248980D01*
X372700Y240000D02*
X617300D01*
X638980Y248980D02*
X821020Y431020D01*
X830000Y452700D02*
Y458300D01*
X188420Y808300D02*
X801580D01*
X830000Y458300D02*
Y778300D01*
X160000Y458300D02*
Y778300D01*
D24*
X341840Y747250D02*
D03*
X273260D02*
D03*
D25*
X495000Y645610D02*
D03*
D26*
X200000Y500000D02*
D03*
Y760000D02*
D03*
X790000D02*
D03*
Y500000D02*
D03*
X670000Y339952D02*
D03*
X320000D02*
D03*
D27*
X544940Y577750D02*
D03*
D28*
X570340D02*
D03*
X595740D02*
D03*
D29*
X605000Y509750D02*
D03*
X655000D02*
D03*
X705000D02*
D03*
X285000D02*
D03*
X335000D02*
D03*
X385000D02*
D03*
D30*
X469200Y509952D02*
D03*
D31*
X520000D02*
D03*
D32*
X729340Y667452D02*
D03*
Y642452D02*
D03*
Y617452D02*
D03*
D33*
X468750Y538452D02*
D03*
X315250Y480452D02*
D03*
X296840Y651920D02*
D03*
X497628Y606788D02*
D03*
X451840Y688000D02*
D03*
X430840Y618000D02*
D03*
X412800Y616000D02*
D03*
X561840Y670000D02*
D03*
X606840Y640000D02*
D03*
X559140Y645685D02*
D03*
X345140Y625290D02*
D03*
X345800Y690060D02*
D03*
X578820Y615130D02*
D03*
X596600Y663390D02*
D03*
Y610050D02*
D03*
X555960Y686250D02*
D03*
X652480Y700220D02*
D03*
X394670Y650690D02*
D03*
X409910Y720540D02*
D03*
X242270Y617670D02*
D03*
Y569410D02*
D03*
X254970Y604970D02*
D03*
X307700Y570070D02*
D03*
X314660Y636720D02*
D03*
Y716730D02*
D03*
X384510Y662120D02*
D03*
X543260Y532580D02*
D03*
X346410Y650690D02*
D03*
X340060Y531310D02*
D03*
X254970Y631640D02*
D03*
X558500Y620210D02*
D03*
X502620Y702760D02*
D03*
X464520Y720020D02*
D03*
X437850Y740860D02*
D03*
X562996Y766946D02*
D03*
X562310Y701490D02*
D03*
X585170Y787850D02*
D03*
X553420D02*
D03*
X479760Y784040D02*
D03*
X454360Y789120D02*
D03*
X420070Y589730D02*
D03*
X548840Y700000D02*
D03*
X549840Y608000D02*
D03*
X680840Y586000D02*
D03*
X385839Y543999D02*
D03*
X553840Y747000D02*
D03*
X316840Y590000D02*
D03*
X378340Y747000D02*
D03*
X323279Y721232D02*
D03*
X324840Y630685D02*
D03*
X286260Y694300D02*
D03*
X228260Y747300D02*
D03*
X661840Y682452D02*
D03*
X609340Y624952D02*
D03*
X674340Y614952D02*
D03*
D34*
X437850Y700990D02*
D03*
M02*
