G04*
G04 #@! TF.GenerationSoftware,Altium Limited,CircuitStudio,1.5.2 (1.5.2.30)*
G04*
G04 Layer_Color=13948096*
%FSLAX44Y44*%
%MOMM*%
G71*
G01*
G75*
%ADD23C,0.2540*%
%ADD37C,0.5000*%
D23*
X358453Y747250D02*
G03*
X358453Y747250I-16613J0D01*
G01*
X289873D02*
G03*
X289873Y747250I-16613J0D01*
G01*
X595260Y594300D02*
Y602300D01*
X574860Y594300D02*
Y602300D01*
X564260Y594300D02*
Y602300D01*
X574860D02*
X595260D01*
X544460Y594300D02*
Y602300D01*
X564260D01*
X443800Y469312D02*
Y550452D01*
X545400D01*
Y469452D02*
Y550452D01*
X443800Y469452D02*
X545400D01*
X729340Y626452D02*
Y633452D01*
Y651452D02*
Y658452D01*
X691090Y725750D02*
Y740985D01*
X683472D01*
X680933Y738446D01*
Y733367D01*
X683472Y730828D01*
X691090D01*
X675855Y725750D02*
Y740985D01*
X665698Y725750D01*
Y740985D01*
X660620Y725750D02*
Y740985D01*
X653002D01*
X650463Y738446D01*
Y733367D01*
X653002Y730828D01*
X660620D01*
X645385Y733367D02*
X635228D01*
X630149Y725750D02*
Y740985D01*
X622532D01*
X619993Y738446D01*
Y733367D01*
X622532Y730828D01*
X630149D01*
X614914Y740985D02*
Y728289D01*
X612375Y725750D01*
X607297D01*
X604758Y728289D01*
Y740985D01*
X599679D02*
Y725750D01*
X592062D01*
X589523Y728289D01*
Y738446D01*
X592062Y740985D01*
X599679D01*
X569209Y725750D02*
Y740985D01*
X561592D01*
X559053Y738446D01*
Y733367D01*
X561592Y730828D01*
X569209D01*
X564131D02*
X559053Y725750D01*
X546357D02*
X551435D01*
X553974Y728289D01*
Y733367D01*
X551435Y735907D01*
X546357D01*
X543817Y733367D01*
Y730828D01*
X553974D01*
X538739Y735907D02*
X533661Y725750D01*
X528582Y735907D01*
X498112Y725750D02*
X508269D01*
X498112Y735907D01*
Y738446D01*
X500651Y740985D01*
X505730D01*
X508269Y738446D01*
X691090Y754500D02*
Y769735D01*
X686012Y764657D01*
X680933Y769735D01*
Y754500D01*
X668237D02*
X673316D01*
X675855Y757039D01*
Y762117D01*
X673316Y764657D01*
X668237D01*
X665698Y762117D01*
Y759578D01*
X675855D01*
X660620Y754500D02*
X655541D01*
X658081D01*
Y769735D01*
X660620D01*
X645385Y764657D02*
X640306D01*
X637767Y762117D01*
Y754500D01*
X645385D01*
X647924Y757039D01*
X645385Y759578D01*
X637767D01*
X632689Y754500D02*
Y764657D01*
X625071D01*
X622532Y762117D01*
Y754500D01*
X617454D02*
X609836D01*
X607297Y757039D01*
X609836Y759578D01*
X614914D01*
X617454Y762117D01*
X614914Y764657D01*
X607297D01*
X599679Y754500D02*
X594601D01*
X592062Y757039D01*
Y762117D01*
X594601Y764657D01*
X599679D01*
X602219Y762117D01*
Y757039D01*
X599679Y754500D01*
X586983D02*
Y764657D01*
X579366D01*
X576827Y762117D01*
Y754500D01*
X556513Y769735D02*
X546357D01*
X551435D01*
Y754500D01*
X533661D02*
X538739D01*
X541278Y757039D01*
Y762117D01*
X538739Y764657D01*
X533661D01*
X531121Y762117D01*
Y759578D01*
X541278D01*
X515886Y764657D02*
X523504D01*
X526043Y762117D01*
Y757039D01*
X523504Y754500D01*
X515886D01*
X510808Y769735D02*
Y754500D01*
Y762117D01*
X508269Y764657D01*
X503191D01*
X500651Y762117D01*
Y754500D01*
X731260Y570500D02*
Y580657D01*
X726182Y585735D01*
X721103Y580657D01*
Y570500D01*
Y578117D01*
X731260D01*
X716025Y585735D02*
Y570500D01*
X708407D01*
X705868Y573039D01*
Y583196D01*
X708407Y585735D01*
X716025D01*
X690633D02*
X695712D01*
X693172D01*
Y573039D01*
X695712Y570500D01*
X698251D01*
X700790Y573039D01*
X670320Y585735D02*
X660163D01*
X665241D01*
Y570500D01*
X655085Y580657D02*
Y570500D01*
Y575578D01*
X652545Y578117D01*
X650006Y580657D01*
X647467D01*
X639850Y570500D02*
X634771D01*
X637310D01*
Y580657D01*
X639850D01*
X622075Y565421D02*
X619536D01*
X616997Y567961D01*
Y580657D01*
X624614D01*
X627154Y578117D01*
Y573039D01*
X624614Y570500D01*
X616997D01*
X510683Y583196D02*
X513222Y585735D01*
X518301D01*
X520840Y583196D01*
Y580657D01*
X518301Y578117D01*
X513222D01*
X510683Y575578D01*
Y573039D01*
X513222Y570500D01*
X518301D01*
X520840Y573039D01*
X497987Y570500D02*
X503066D01*
X505605Y573039D01*
Y578117D01*
X503066Y580657D01*
X497987D01*
X495448Y578117D01*
Y575578D01*
X505605D01*
X487831Y583196D02*
Y580657D01*
X490370D01*
X485291D01*
X487831D01*
Y573039D01*
X485291Y570500D01*
X477674Y585735D02*
X467517D01*
X472595D01*
Y570500D01*
X462439Y580657D02*
Y570500D01*
Y575578D01*
X459900Y578117D01*
X457360Y580657D01*
X454821D01*
X442125Y565421D02*
X439586D01*
X437047Y567961D01*
Y580657D01*
X444665D01*
X447204Y578117D01*
Y573039D01*
X444665Y570500D01*
X437047D01*
X537643Y693535D02*
X542721D01*
X545260Y690996D01*
Y680839D01*
X542721Y678300D01*
X537643D01*
X535103Y680839D01*
Y690996D01*
X537643Y693535D01*
X519868Y678300D02*
X530025D01*
X519868Y688457D01*
Y690996D01*
X522407Y693535D01*
X527486D01*
X530025Y690996D01*
X499555Y678300D02*
Y693535D01*
X491937D01*
X489398Y690996D01*
Y685918D01*
X491937Y683378D01*
X499555D01*
X481781Y678300D02*
X476702D01*
X474163Y680839D01*
Y685918D01*
X476702Y688457D01*
X481781D01*
X484320Y685918D01*
Y680839D01*
X481781Y678300D01*
X469085Y688457D02*
Y678300D01*
Y683378D01*
X466545Y685918D01*
X464006Y688457D01*
X461467D01*
X451310Y690996D02*
Y688457D01*
X453850D01*
X448771D01*
X451310D01*
Y680839D01*
X448771Y678300D01*
X353260Y769300D02*
Y784535D01*
X345643D01*
X343103Y781996D01*
Y776917D01*
X345643Y774378D01*
X353260D01*
X338025Y784535D02*
Y769300D01*
X330407D01*
X327868Y771839D01*
Y781996D01*
X330407Y784535D01*
X338025D01*
X286831Y769300D02*
Y784535D01*
X279213D01*
X276674Y781996D01*
Y776917D01*
X279213Y774378D01*
X286831D01*
X261439Y781996D02*
X263978Y784535D01*
X269057D01*
X271596Y781996D01*
Y771839D01*
X269057Y769300D01*
X263978D01*
X261439Y771839D01*
Y776917D01*
X266518D01*
X577105Y411898D02*
X574566Y414437D01*
X569487D01*
X566948Y411898D01*
Y409359D01*
X569487Y406820D01*
X572026D01*
X569487D01*
X566948Y404281D01*
Y401742D01*
X569487Y399202D01*
X574566D01*
X577105Y401742D01*
X561870Y399202D02*
Y401742D01*
X559330D01*
Y399202D01*
X561870D01*
X549174Y411898D02*
X546635Y414437D01*
X541556D01*
X539017Y411898D01*
Y409359D01*
X541556Y406820D01*
X544095D01*
X541556D01*
X539017Y404281D01*
Y401742D01*
X541556Y399202D01*
X546635D01*
X549174Y401742D01*
X533939Y406820D02*
X523782D01*
X508547Y414437D02*
X518704D01*
Y406820D01*
X513625Y409359D01*
X511086D01*
X508547Y406820D01*
Y401742D01*
X511086Y399202D01*
X516164D01*
X518704Y401742D01*
X503469Y414437D02*
Y404281D01*
X498390Y399202D01*
X493312Y404281D01*
Y414437D01*
X478077D02*
Y399202D01*
X485694D01*
X488233Y401742D01*
Y406820D01*
X485694Y409359D01*
X478077D01*
X462842D02*
X470459D01*
X472998Y406820D01*
Y401742D01*
X470459Y399202D01*
X462842D01*
X442528Y414437D02*
X437450D01*
X439989D01*
Y399202D01*
X442528D01*
X437450D01*
X429832D02*
Y414437D01*
X419676Y399202D01*
Y414437D01*
X351603Y450996D02*
X354142Y453535D01*
X359221D01*
X361760Y450996D01*
Y440839D01*
X359221Y438300D01*
X354142D01*
X351603Y440839D01*
Y445918D01*
X356682D01*
X346525Y438300D02*
Y453535D01*
X336368Y438300D01*
Y453535D01*
X331290D02*
Y438300D01*
X323672D01*
X321133Y440839D01*
Y450996D01*
X323672Y453535D01*
X331290D01*
X717603Y450996D02*
X720142Y453535D01*
X725221D01*
X727760Y450996D01*
Y448457D01*
X725221Y445918D01*
X720142D01*
X717603Y443378D01*
Y440839D01*
X720142Y438300D01*
X725221D01*
X727760Y440839D01*
X712525Y438300D02*
Y448457D01*
X704907D01*
X702368Y445918D01*
Y438300D01*
X697290D02*
X689672D01*
X687133Y440839D01*
X689672Y443378D01*
X694751D01*
X697290Y445918D01*
X694751Y448457D01*
X687133D01*
X625760Y453535D02*
Y438300D01*
X618142D01*
X615603Y440839D01*
Y450996D01*
X618142Y453535D01*
X625760D01*
X602907Y438300D02*
X607986D01*
X610525Y440839D01*
Y445918D01*
X607986Y448457D01*
X602907D01*
X600368Y445918D01*
Y443378D01*
X610525D01*
X592751Y450996D02*
Y448457D01*
X595290D01*
X590211D01*
X592751D01*
Y440839D01*
X590211Y438300D01*
X411760Y453535D02*
X401603D01*
X406682D01*
Y438300D01*
X396525Y453535D02*
Y438300D01*
X386368D01*
X381290Y448457D02*
X376211Y438300D01*
X371133Y448457D01*
X301603Y453535D02*
X311760D01*
Y438300D01*
X301603D01*
X311760Y445918D02*
X306682D01*
X296525Y448457D02*
X286368Y438300D01*
X291446Y443378D01*
X286368Y448457D01*
X296525Y438300D01*
X278751Y450996D02*
Y448457D01*
X281290D01*
X276211D01*
X278751D01*
Y440839D01*
X276211Y438300D01*
X541510Y453535D02*
Y443378D01*
X536432Y438300D01*
X531353Y443378D01*
Y453535D01*
X516118Y450996D02*
X518657Y453535D01*
X523736D01*
X526275Y450996D01*
Y440839D01*
X523736Y438300D01*
X518657D01*
X516118Y440839D01*
X500883Y450996D02*
X503422Y453535D01*
X508501D01*
X511040Y450996D01*
Y440839D01*
X508501Y438300D01*
X503422D01*
X500883Y440839D01*
X477353Y450996D02*
X479893Y453535D01*
X484971D01*
X487510Y450996D01*
Y440839D01*
X484971Y438300D01*
X479893D01*
X477353Y440839D01*
Y445918D01*
X482432D01*
X472275Y438300D02*
Y453535D01*
X462118Y438300D01*
Y453535D01*
X457040D02*
Y438300D01*
X449422D01*
X446883Y440839D01*
Y450996D01*
X449422Y453535D01*
X457040D01*
X665603Y450996D02*
X668142Y453535D01*
X673221D01*
X675760Y450996D01*
Y440839D01*
X673221Y438300D01*
X668142D01*
X665603Y440839D01*
Y445918D01*
X670682D01*
X660525Y438300D02*
Y453535D01*
X650368Y438300D01*
Y453535D01*
X645290D02*
Y438300D01*
X637672D01*
X635133Y440839D01*
Y450996D01*
X637672Y453535D01*
X645290D01*
X772036Y627609D02*
X774575Y625070D01*
Y619991D01*
X772036Y617452D01*
X761879D01*
X759340Y619991D01*
Y625070D01*
X761879Y627609D01*
X766957D01*
Y622531D01*
X769497Y635227D02*
Y640305D01*
X766957Y642844D01*
X759340D01*
Y635227D01*
X761879Y632687D01*
X764418Y635227D01*
Y642844D01*
X759340Y647923D02*
Y653001D01*
Y650462D01*
X769497D01*
Y647923D01*
X759340Y660618D02*
X769497D01*
Y668236D01*
X766957Y670775D01*
X759340D01*
X160000Y452700D02*
G03*
X168980Y431020I30661J0D01*
G01*
X351020Y248980D02*
G03*
X372700Y240000I21680J21680D01*
G01*
X617300D02*
G03*
X638980Y248980I0J30661D01*
G01*
X821020Y431020D02*
G03*
X830000Y452700I-21680J21680D01*
G01*
Y778300D02*
G03*
X801580Y808300I-29210J790D01*
G01*
X188420D02*
G03*
X160000Y778300I790J-29210D01*
G01*
Y452700D02*
Y458300D01*
X168980Y431020D02*
X351020Y248980D01*
X372700Y240000D02*
X617300D01*
X638980Y248980D02*
X821020Y431020D01*
X830000Y452700D02*
Y458300D01*
X188420Y808300D02*
X801580D01*
X830000Y458300D02*
Y778300D01*
X160000Y458300D02*
Y778300D01*
D37*
X519886Y645610D02*
G03*
X519886Y645610I-24886J0D01*
G01*
X565000Y509750D02*
G03*
X565000Y509750I-5000J0D01*
G01*
X245000D02*
G03*
X245000Y509750I-5000J0D01*
G01*
X725000Y459750D02*
X735000D01*
X675000D02*
X685000D01*
X625000D02*
X635000D01*
X685000D02*
X695000Y469750D01*
X715000D02*
X725000Y459750D01*
X665000Y469750D02*
X675000Y459750D01*
X635000D02*
X645000Y469750D01*
X615000D02*
X625000Y459750D01*
X575000D02*
X585000D01*
X595000Y469750D01*
X695000D02*
X715000D01*
X645000D02*
X665000D01*
X595000D02*
X615000D01*
X735000Y459750D02*
Y549750D01*
X575000D02*
X735000D01*
X575000Y459750D02*
Y549750D01*
X405000Y459750D02*
X415000D01*
X355000D02*
X365000D01*
X305000D02*
X315000D01*
X365000D02*
X375000Y469750D01*
X395000D02*
X405000Y459750D01*
X345000Y469750D02*
X355000Y459750D01*
X315000D02*
X325000Y469750D01*
X295000D02*
X305000Y459750D01*
X255000D02*
X265000D01*
X275000Y469750D01*
X375000D02*
X395000D01*
X325000D02*
X345000D01*
X275000D02*
X295000D01*
X415000Y459750D02*
Y549750D01*
X255000D02*
X415000D01*
X255000Y459750D02*
Y549750D01*
M02*
