G04*
G04 #@! TF.GenerationSoftware,Altium Limited,CircuitStudio,1.5.2 (1.5.2.30)*
G04*
G04 Layer_Color=8150272*
%FSLAX44Y44*%
%MOMM*%
G71*
G01*
G75*
%ADD23C,0.2540*%
%ADD55C,0.2032*%
%ADD56C,2.3032*%
%ADD57C,4.2032*%
%ADD58C,6.2032*%
%ADD59R,1.7272X1.7272*%
%ADD60C,1.7272*%
%ADD61C,2.7032*%
%ADD62C,2.7432*%
%ADD63R,2.7432X2.7432*%
%ADD64C,1.5032*%
%ADD65C,0.8032*%
%ADD66C,0.6532*%
D23*
X160000Y452700D02*
G03*
X168980Y431020I30661J0D01*
G01*
X351020Y248980D02*
G03*
X372700Y240000I21680J21680D01*
G01*
X617300D02*
G03*
X638980Y248980I0J30661D01*
G01*
X821020Y431020D02*
G03*
X830000Y452700I-21680J21680D01*
G01*
Y778300D02*
G03*
X801580Y808300I-29210J790D01*
G01*
X188420D02*
G03*
X160000Y778300I790J-29210D01*
G01*
Y452700D02*
Y458300D01*
X168980Y431020D02*
X351020Y248980D01*
X372700Y240000D02*
X617300D01*
X638980Y248980D02*
X821020Y431020D01*
X830000Y452700D02*
Y458300D01*
X188420Y808300D02*
X801580D01*
X830000Y458300D02*
Y778300D01*
X160000Y458300D02*
Y778300D01*
D55*
X565000Y329952D02*
D03*
X425000D02*
D03*
D56*
X341840Y747250D02*
D03*
X273260D02*
D03*
D57*
X495000Y645610D02*
D03*
D58*
X200000Y500000D02*
D03*
Y760000D02*
D03*
X790000D02*
D03*
Y500000D02*
D03*
X670000Y339952D02*
D03*
X320000D02*
D03*
D59*
X544940Y577750D02*
D03*
D60*
X570340D02*
D03*
X595740D02*
D03*
D61*
X605000Y509750D02*
D03*
X655000D02*
D03*
X705000D02*
D03*
X285000D02*
D03*
X335000D02*
D03*
X385000D02*
D03*
D62*
X469200Y509952D02*
D03*
D63*
X520000D02*
D03*
D64*
X729340Y667452D02*
D03*
Y642452D02*
D03*
Y617452D02*
D03*
D65*
X468750Y538452D02*
D03*
X315250Y480452D02*
D03*
X296840Y651920D02*
D03*
X497628Y606788D02*
D03*
X451840Y688000D02*
D03*
X430840Y618000D02*
D03*
X412800Y616000D02*
D03*
X561840Y670000D02*
D03*
X606840Y640000D02*
D03*
X559140Y645685D02*
D03*
X345140Y625290D02*
D03*
X345800Y690060D02*
D03*
X578820Y615130D02*
D03*
X596600Y663390D02*
D03*
Y610050D02*
D03*
X555960Y686250D02*
D03*
X652480Y700220D02*
D03*
X394670Y650690D02*
D03*
X409910Y720540D02*
D03*
X242270Y617670D02*
D03*
Y569410D02*
D03*
X254970Y604970D02*
D03*
X307700Y570070D02*
D03*
X314660Y636720D02*
D03*
Y716730D02*
D03*
X384510Y662120D02*
D03*
X543260Y532580D02*
D03*
X346410Y650690D02*
D03*
X340060Y531310D02*
D03*
X254970Y631640D02*
D03*
X558500Y620210D02*
D03*
X502620Y702760D02*
D03*
X464520Y720020D02*
D03*
X437850Y740860D02*
D03*
X562996Y766946D02*
D03*
X562310Y701490D02*
D03*
X585170Y787850D02*
D03*
X553420D02*
D03*
X479760Y784040D02*
D03*
X454360Y789120D02*
D03*
X420070Y589730D02*
D03*
X548840Y700000D02*
D03*
X549840Y608000D02*
D03*
X680840Y586000D02*
D03*
X385839Y543999D02*
D03*
X553840Y747000D02*
D03*
X316840Y590000D02*
D03*
X378340Y747000D02*
D03*
X323279Y721232D02*
D03*
X324840Y630685D02*
D03*
X286260Y694300D02*
D03*
X228260Y747300D02*
D03*
X661840Y682452D02*
D03*
X609340Y624952D02*
D03*
X674340Y614952D02*
D03*
D66*
X437850Y700990D02*
D03*
M02*
