G04*
G04 #@! TF.GenerationSoftware,Altium Limited,CircuitStudio,1.5.2 (1.5.2.30)*
G04*
G04 Layer_Color=11767835*
%FSLAX44Y44*%
%MOMM*%
G71*
G01*
G75*
%ADD23C,0.2540*%
%ADD24C,2.1000*%
%ADD25C,4.0000*%
%ADD26C,6.0000*%
%ADD27R,1.5240X1.5240*%
%ADD28C,1.5240*%
%ADD29C,2.5000*%
%ADD30C,2.5400*%
%ADD31R,2.5400X2.5400*%
%ADD32C,1.3000*%
D23*
X160000Y452700D02*
G03*
X168980Y431020I30661J0D01*
G01*
X351020Y248980D02*
G03*
X372700Y240000I21680J21680D01*
G01*
X617300D02*
G03*
X638980Y248980I0J30661D01*
G01*
X821020Y431020D02*
G03*
X830000Y452700I-21680J21680D01*
G01*
Y778300D02*
G03*
X801580Y808300I-29210J790D01*
G01*
X188420D02*
G03*
X160000Y778300I790J-29210D01*
G01*
Y452700D02*
Y458300D01*
X168980Y431020D02*
X351020Y248980D01*
X372700Y240000D02*
X617300D01*
X638980Y248980D02*
X821020Y431020D01*
X830000Y452700D02*
Y458300D01*
X188420Y808300D02*
X801580D01*
X830000Y458300D02*
Y778300D01*
X160000Y458300D02*
Y778300D01*
D24*
X341840Y747250D02*
D03*
X273260D02*
D03*
D25*
X495000Y645610D02*
D03*
D26*
X200000Y500000D02*
D03*
Y760000D02*
D03*
X790000D02*
D03*
Y500000D02*
D03*
X670000Y339952D02*
D03*
X320000D02*
D03*
D27*
X544940Y577750D02*
D03*
D28*
X570340D02*
D03*
X595740D02*
D03*
D29*
X605000Y509750D02*
D03*
X655000D02*
D03*
X705000D02*
D03*
X285000D02*
D03*
X335000D02*
D03*
X385000D02*
D03*
D30*
X469200Y509952D02*
D03*
D31*
X520000D02*
D03*
D32*
X729340Y667452D02*
D03*
Y642452D02*
D03*
Y617452D02*
D03*
M02*
